<svg clip-rule="evenodd" fill-rule="evenodd" image-rendering="optimizeQuality" shape-rendering="geometricPrecision" text-rendering="geometricPrecision" viewBox="0 0 1024 1024" xmlns="http://www.w3.org/2000/svg"><path d="M-.5-.5h1024v1024H-.5z" fill="#fefdf8"/><path d="m784.5 577.5 1.5 3q.75-40.997.5-82h-3q-21.248-2.473-30.5-22a63.6 63.6 0 0 1-4-15 484 484 0 0 1 0-44q7.477-22.76 26-8a32.5 32.5 0 0 1 4 10l1 35q1.247 5.508 5.5 9 1.741-45.544 3.5-91 12.441-28.269 36-9a10.1 10.1 0 0 1 1.5 4 53 53 0 0 0 1.5 7q.25 54.754 1.5 109a2.43 2.43 0 0 0 .5 2q3.708-2.697 5-7a533 533 0 0 0 2-43q2.56-17.073 19.5-14.5 10.347 4.915 11.5 16.5a307 307 0 0 1-1 44q-3.13 34.367-36.5 42-.5 29.017 1 58a225 225 0 0 1 20-6q6.18.642 11 4.5a3752 3752 0 0 1 76.5 69.5q3.503 5.482-1.5 9.5-6.804 2.069-14 1.5-.5 54.509 1 109a74.7 74.7 0 0 1 15 6.5q2.305 1.665 2 4.5-12.582 1.836-25-1.5a498 498 0 0 1-52-14 93.5 93.5 0 0 0-25-1q-26.382 13.712-56 15.5a61 61 0 0 1-11-.5 14.6 14.6 0 0 1 6-4l63-21a85.3 85.3 0 0 1 23 1 1141 1141 0 0 0 45 12.5q2.99-53.476 2-108-5.431-1.152-13-2a3.65 3.65 0 0 0-1.5 1 338 338 0 0 0-25.5-1.5q-3.467-3.228 1-6l-4-1a384 384 0 0 1 46 .5l5-.5q1.524-.779 2-2.5a638 638 0 0 0-45-40q-12.51-10.013-25-20a1623 1623 0 0 1-54 15q4.236 21.591-1 43 29.75.631 59 2-10.013-.25-20 .5 13.991.75 28 .5.329 1.762-1 3-1.702.904-3 1 .885 1.948 3 2.5l-1 1a1027 1027 0 0 1-64-2.5l-4 .5q1.855.348 3 1.5-2.518-.322-3 2-2.264-2.039-2 1.5a119.7 119.7 0 0 1-2.5 35.5 3.65 3.65 0 0 0-1.5-1q-1.073 3.417-3.5 4-1.486-2.159-4-3-.297-2.822-1.5-5 3.892-26.995-.5-54-6.66-16.66-23.5-23.5-18.81-5.467-38-2 19.158 7.701 33.5 22.5 6.523 8.515 7 19a173 173 0 0 0-30.5-23.5 906 906 0 0 1-62-28 1050 1050 0 0 1-37-23 180 180 0 0 0-9.5-8.5 5531 5531 0 0 0-18-71q-5.75-15.75-21.5-21.5-20.101-6.946-41-4-8.088 3.894-11 12.5 18.267 1.192 35 8.5 1.58 2.082.5 4.5a23.3 23.3 0 0 1-6.5 1 184 184 0 0 0-35-2.5q-8.03 3.27-10 11.5-1.442 2.648-1 6h13q13.25.332 25 6.5 2.26 1.256 1.5 3.5a34.3 34.3 0 0 1-8 1 290 290 0 0 0-36.5-1.5q-6.97 6.153-6 15.5a124.7 124.7 0 0 1 27 3.5q21.947 7.4-2 7.5a208 208 0 0 0-28-.5q-7.71 6.842-7 17.5 20.859-.966 39 9.5a32.6 32.6 0 0 0 4 4.5q12.573 25.321 39 35.5 4.593 1.112 9-.5 27.771 39.683 63 73.5a172 172 0 0 0 22 16.5 47 47 0 0 0 7 6q-4.5-.5-4 4-2.682-.428-5 1 1.101 4.602-3 1.5 2.26-1.256 1.5-3.5l-1 1a14.7 14.7 0 0 0-4-5q-1.725 1.386-3 0-.926 1.423.5 2.5-1.5 1-3 0 1.254-1.865-1-3.5-1.5 2-3 0-2.018 1.27-3 3.5 1.573.738 3-.5-.213 3.585 1.5 7 4.788 6.954 12 16 1.5-2 3 0 .926-1.423-.5-2.5 1.423-.926 2.5.5 3.06-7.28 4.5-1 7.113-1.392 1-4.5 2.915-4.999 3.5.5 5.564-4.46 5 2 2.724-1.244 5.5-2.5-3.143-.834-.5-1.5l3 2q1.516-.588 1.5-2 2.224 3.668 3.5-1 1-14 0-28-1.037 3.586-3 0-2.451 2.236 1 4l1-1q1.124 1.702-.5 3-1.824-.753-3.5-1-1 1.5 0 3 1.517-1.255 3.5-1a4.93 4.93 0 0 1-.5 3q-1.574-1.526-3.5-.5 2.24 1.735-.5 2.5l-1.5-.5q.826-2.097 1-4a4.93 4.93 0 0 0-3-.5q1.703-4.484.5-9l1 3a20.4 20.4 0 0 1 1.5-5.5q-1.457-1.806-3-1.5l5.5-5 1 1q1.564-5.59 1.5 1a4.93 4.93 0 0 1 3 .5q-5.687 1.56-2 5.5 1.969-1.44 4 .5l38 1q-19.26.254-38 1.5a1601 1601 0 0 0-1 80q.428 2.682-1 5a5019 5019 0 0 0-60-79v-2a24.3 24.3 0 0 0-3-5.5 420 420 0 0 0-41 0 619 619 0 0 0-1 49.5q-1.314.197-2-1 2.28-3.983-1.5-2-1.588-.195-2.5-1.5a20.4 20.4 0 0 0 1.5-5.5 12.9 12.9 0 0 1 .5 5h3q.705-4.269-2.5-7l-1 1-1-4q-1.173 3.864-4.5 6 1.238 1.427.5 3-3.194-2.044-1.5 1a7.25 7.25 0 0 1-2 2.5q3.648 1.63-1 1.5.257-3.74-3-5.5 3.446-1.74-1-3 1.926-1.026 3.5.5a7.3 7.3 0 0 0 2-3q2.046 1.137 3.5-1.5-1.554-2.426-3.5-.5-1.649-3.808-5-2-.177-3.11-3-4-.82 1.184-2 3a54 54 0 0 1-2.5-8q.25-11.011-.5-22-.901-2.788-2.5-1h-111v151q-1.245-6.784-3-15.5 2.652-6.908-2-12.5-2.106 2.249-2-1 .368-4.002 4-5.5-3.27-4.624-7-.5-1.656-1.697 1-2.5-1.13-2.23-2.5-.5l-4-5q-1.517 1.255-3.5 1v3q7.049 1.857 10 8.5l-1.5 1.5q-4.628-9.747-8 1l-1-4a3.65 3.65 0 0 1-1.5 1q-1.624-1.298-.5-3 1.574 1.526 3.5.5-4-1 0-2-4.27-1.319-2-5a42.4 42.4 0 0 1-1.5-8.5l-1 11q-.274-4.297-1.5-8-3.246-25.514-28-33.5 27.675-15.096 19.5-45.5-7.275-15.973-23.5-22 .657.098 1-.5a37.7 37.7 0 0 0-13-3.5 71 71 0 0 1 4-2q-1.278-4.2-1-9a6.85 6.85 0 0 0-4 1q-1.329-1.238-1-3a49.9 49.9 0 0 0-14 1 3.65 3.65 0 0 0 1 1.5 11.3 11.3 0 0 0-3.5 1.5q-1.461-3.567-2 1l-1-2q-1.077 1.426-2.5.5 2.305-1.665 2-4.5h-16a390 390 0 0 1-1.5-16l-1 7q-3.093 2.79-4 7-1 2-2 0a6.55 6.55 0 0 1-3 3 102.2 102.2 0 0 0-24.5-.5q-1.96 3.486-6 4l1 1a11.3 11.3 0 0 0-1.5 3.5 9.5 9.5 0 0 0-2.5-1.5q3.38-1.581 1-4.5 2.552.465 5-1.5-4.89-1.176-9.5.5-4.577-2.278-9.5-3h45a539 539 0 0 1-2.5-36q-9.933 15.442-27.5 20.5a109 109 0 0 1-16 14.5q-.926.166-1.5 1v-4a41 41 0 0 1-5.5 0l-1-1q1.654-.747 3-1-1.313-3.41-5-3 13.902-11.15 25.5-25 3.478-13.798-2-27-10.374-21.879-30.5-35.5-6.168-3.852-13-5 15.916 21.743 13.5 48.5-1.791 9.073-7.5 16 3.188-29.743-14-55-13.989-20.956-18-46-16.028 1.866-29-7v-3a283 283 0 0 0 28-2.5q6.915-.722 10-6.5 1.935-.837 2.5-3l2.5-8a389 389 0 0 0-25-4.5q-30.144-7.923 1.5-9.5a755 755 0 0 1 28.5 2.5q7.351-8.436 6.5-19.5-5.534-3.966-12.5-4a959 959 0 0 0-36-1.5q-6.665-.126-5-6 28.335-6.066 57-1.5a44 44 0 0 0 1.5-16q-3.034-8.86-12.5-8.5a1164 1164 0 0 1-46-1.5q-.513-1.258-2-1-1.006-2.02 0-3.5a61.4 61.4 0 0 1 15-4 342 342 0 0 1 37 0q2.577.519 5 1.5 4.066-9.557-.5-19-1.062-1.321-2.5-2-1.874-2.454-5-3.5a245.5 245.5 0 0 0-65 5q-15.77 1.77-17.5 17.5a359 359 0 0 0-1 51 4085 4085 0 0 0 5.5 47.5 885 885 0 0 0-3 55.5q-1.954 36.288 13.5 69a132 132 0 0 0 11 16q5.144 5.908 11.5 10a119 119 0 0 0 12 9.5 35.1 35.1 0 0 0 15 1q21.353-4.857 39-17.5a58 58 0 0 0-5.5 7q-5.928-.183-10.5 4.5l2 2a14.7 14.7 0 0 0-5 1.5q.5 1.5 2 2 4.705 1.285 10 0 1.445.705 0 2a115.7 115.7 0 0 1-31 11.5q-15.835 3.523-28-7-1.5-1-3 0a2455 2455 0 0 1-58 32.5 133 133 0 0 0-1 23 482 482 0 0 0 36-3.5q9-1 18 0a142 142 0 0 1 18 6 547 547 0 0 1 35 8q5.157 1.38 9 5-2.337.315-4 1.5a169 169 0 0 1-28-1.5 1323 1323 0 0 1-39.5-9.5 1200 1200 0 0 1-70.5 6.5 989 989 0 0 0-27.5 4.5 19.8 19.8 0 0 1-5.5-1q1.293-5.679 7-7.5a57.6 57.6 0 0 1 21-5.5v-30q-24.358-6.623-26.5-32a169 169 0 0 1 0-26q3.096-15.086 17.5-9.5 4.096 3.94 5.5 9.5a364 364 0 0 1 2 24 4.46 4.46 0 0 0 1.5 2q.619-35.486.5-71 3.591-19.644 22.5-14.5 10.662 10.72 9 26a388 388 0 0 0-.5 43.5 7.3 7.3 0 0 0 2-3 126 126 0 0 0 2-17q3.234-13.992 16.5-8.5a31.7 31.7 0 0 1 5.5 10.5q7.934 36.639-26 51-1.212 3.119.5 6 24.694-13.95 49-28.5-35.252-35.277-36.5-85.5a433 433 0 0 1 3.5-75q-8.96-45.14-5.5-91-.667-25.758 23.5-33a188 188 0 0 0 4-29.5 143 143 0 0 1-1.5-29.5q5.691-17.738 24.5-15.5 16.558 5.055 22.5 21.5 6.156 22.776 1.5 46 11.011-.25 22 .5 24.043 7.303 20.5 32.5a138 138 0 0 1-2.5 9q8.696 19.056-2 37 4.2 19.647-10.5 33-.882 17.765-14.5 29 .571 3.811 2.5 7a3776 3776 0 0 0 60-85q21.361-31.854 56.5-47.5a2367 2367 0 0 1 51-20 70.6 70.6 0 0 1 9.5-10.5q-29.856-35.712-41-82-3.847-33.727 3-67 .75-22.995.5-46-20.57-3.606-39-13.5-14.496-7.665-6.5-21.5 17.099-16.174 40.5-20 9.313-46.886 44-79.5a162.7 162.7 0 0 1 25-16q20.01-22 50-23 46.891-3.156 85 24A677 677 0 0 0 613 70.5q31.834 39.207 32.5 90a330 330 0 0 1-4 41.5 61.3 61.3 0 0 0 4.5 13.5q2.82 18.363-14.5 25 2.59 29.635-14.5 54-13.9 17.448-36 20a810 810 0 0 0-3.5 26q20.295 3.536 27.5 23a47 47 0 0 1 3.5 14 480 480 0 0 1 16 4.5 10529 10529 0 0 0 77-95.5q-2.836-5.192-1.5-11a292 292 0 0 0 9-21q1.185-4.701-1-9-18.412-21.08-46.5-22.5-9.065-2.546-6.5-11.5 10.349-27.354 39.5-25.5a108.8 108.8 0 0 1 32 12q36.108 19.106 65.5 47.5 5.533 16.332 17.5 28.5a211 211 0 0 1 21 9q15.087 11.606 4.5 27.5a90.2 90.2 0 0 1-22.5 22.5q-10.01 3.65-19-2a70.6 70.6 0 0 1-10.5-9.5q-2.97-7.165-3-15L766.5 293q-1-1-2 0a180.5 180.5 0 0 1-17 19q-3.688 2.246-7.5.5-1.891.389-3 2a3828 3828 0 0 1-60.5 85.5q28.503 12.616 50.5 34.5 13.7 17.893 22 39a1274 1274 0 0 1 35.5 104" fill="#072d48"/><path d="M608.5 390.5q3.774.383 7 2.5L605 405.5a241 241 0 0 1 3.5-15" fill="#298abb"/><path d="M825.5 502.5h-6v-123q1.5 59.89 1 122 2.872-.426 5 1" fill="#001b52"/><path d="M196.5 344.5q8.49.12 13.5 7a47.4 47.4 0 0 1 5 12 173.5 173.5 0 0 1-1.5 38q-12.51 1.401-25 3a135.6 135.6 0 0 0 3-27 830 830 0 0 1-1.5-27q2.24-4.221 6.5-6" fill="#fcba7e"/><path d="M713.5 291.5q9.768-.24 15.5 8 1.78 2.316 1 5l-124 174q-1.077 1.426-2.5.5-12.132-12.376-29-16.5a221.5 221.5 0 0 1 16.5-23l49-57a9836 9836 0 0 1 73.5-91" fill="#955418"/><path d="M569.5 311.5a740 740 0 0 1-2.5 14 585 585 0 0 1-2 46 95.5 95.5 0 0 1-16.5 20q-27.79 19.388-61 27.5a71.6 71.6 0 0 1-22-1q-8.6-3.805-17-7.5-1.633-5.367-.5-11 59.588 9.14 93-41 2.363-5.14.5-10 18.321-20.616 27.5-47-.024 5.287.5 10" fill="#ea9857"/><path d="M395.5 171.5q1.442 2.647 1 6 46.626-1.996 91 9 8.694-1.962 17 0-15.83-2.61-27.5 8-2.242 2.415-.5 5 13.43.18 27 .5a55 55 0 0 1 7 2 382 382 0 0 1 16.5 9.5q2.566.091 4-2 .726-3.62-1-7-4.606-6.859-11.5-11 9.851 3.307 20.5 4a407 407 0 0 0 15.5-4q.255-1.983-1-3.5l-23-7q.342-.598 1-.5a161.4 161.4 0 0 1 24 7 2512 2512 0 0 1 5.5 63q3.83 7.69 11.5 3.5a101.6 101.6 0 0 1 15-18q23.361-15.197 31.5 11.5 2.348 31.047-22.5 49.5-8.358 5.125-18 4a39.5 39.5 0 0 1-6-4.5 4.46 4.46 0 0 0-1.5 2 135 135 0 0 1-1.5 13q-.524-4.713-.5-10-9.179 26.384-27.5 47-18.771 22.527-45 35.5-58.683 21.284-87.5-33.5-31.926-53.986-16-115l1-55a98 98 0 0 1 1.5-9" fill="#fcb87a"/><path d="M472.5 352.5q2.217-.393 4 1-10.311 13.535-27 8.5-4.614-1.366-7-5.5.58-1.83 2.5-2 14.195 2.536 27.5-2" fill="#112846"/><path d="M810.5 290.5q8.829-1.735 14.5 5 1 2.5 0 5a85.6 85.6 0 0 1-18.5 19.5q-7.015.372-11.5-5.5-1.952-2.798-1-6a424 424 0 0 1 16.5-18" fill="#5e7f99"/><path d="M507.5 290.5q7.68-.036 12.5 6 1 2 0 4l-5 1q-19.827 42.287-66.5 41.5-20.86-6.404-22-28.5-4.311-.184-7.5-3-.807-2.96 2.5-3a316 316 0 0 0 64-1.5 128.4 128.4 0 0 0 24-10.5l-3-4q.544-1.025 1-2" fill="#0b2b45"/><path d="M495.5 310.5q.814.09 1 1-8.666 15.426-26 18.5a121 121 0 0 1-22 0q-9.413-3.913-14-13 24.505 1.635 49-2 6.54-1.257 12-4.5" fill="#f9fafa"/><path d="M422.5 258.5q-15.181 25.948 14 35.5 9.127 1.291 18-1 6.206-2.455 9-8.5-.5-1.5-2-2-13.134 6.236-26-.5-9.058-6.324-5.5-16.5a78.4 78.4 0 0 0 13-23 62.3 62.3 0 0 0 1.5-16q1.941 1.036 2 5-.672 11.766-6.5 22l-9 13q-2.175 12.849 10.5 16.5a42.4 42.4 0 0 1 8.5 1.5 72.5 72.5 0 0 1 13.5-2.5q1.873 3.314-.5 6.5-7.581 9.065-19.5 8-19.156-.931-27.5-18-2.755-12.225 6-21 .598.342.5 1" fill="#f0c980"/><path d="M444.5 226.5a62.3 62.3 0 0 1-1.5 16 78.4 78.4 0 0 1-13 23q-3.558 10.176 5.5 16.5 12.866 6.736 26 .5 1.5.5 2 2-2.794 6.045-9 8.5-8.873 2.291-18 1-29.181-9.552-14-35.5 14.418-14.31 20.5-34 .417 1.374 1.5 2" fill="#0a2a47"/><path d="M601.5 237.5a19.5 19.5 0 0 1 7 3.5 3.94 3.94 0 0 0-1 2q6.896 17.138-3.5 32.5-8.91 11.202-19.5 2.5a401 401 0 0 0 9.5-16.5 40.4 40.4 0 0 1 12-8q.645-4.038-.5-8h-6q-.5-6-1 0-3.654-.274-6.5 2l-.5-1a260 260 0 0 0 4-8q3.352.442 6-1" fill="#f89f5b"/><path d="M596.5 246.5q3.63-.311 7 1 2.436 2.054 1.5 5-7.495 3.003-13 9a82.7 82.7 0 0 1-8.5 15q-2.475-13.106 5.5-24 3.201-3.98 7.5-6" fill="#0b2948"/><path d="M416.5 220.5q10.525-2.712 11.5 8 1.521 10.185-5.5 17.5a12.5 12.5 0 0 1-7 0q-10.485-13.296 1-25.5" fill="#072d49"/><path d="M498.5 219.5q11.774 1.531 11 13.5.34 6.115-2.5 11.5-7.959 8.218-15-1-6.894-15.034 6.5-24" fill="#0a2c49"/><path d="M732.5 217.5a341 341 0 0 1 41 27.5 57.2 57.2 0 0 1 8.5 9.5q6.82 18.903 21.5 32.5a134 134 0 0 1-10 9.5 372 372 0 0 1-15.5-17 44.9 44.9 0 0 0-10.5-9l-3 1.5a803 803 0 0 1-23 24.5q-9.047-13.815-25-17.5-1.611-1.108-2-3 9.116-17.436 12.5-36.5-22.05-24.65-54.5-31 1.532-2.532 4-4 10.808-6.382 23-2.5a186.7 186.7 0 0 1 33 15.5" fill="#5d7e98"/><path d="M732.5 217.5a186.7 186.7 0 0 0-33-15.5q-12.192-3.882-23 2.5 7.323-7.687 18-5.5 20.931 5.718 38 18.5" fill="#bfccd8"/><path d="M413.5 188.5q11.528-1.147 22 3.5 5.639 9.061-4.5 11.5a82.7 82.7 0 0 0-15.5-2 122 122 0 0 0-19 3.5q-1.58-2.082-.5-4.5 6.585-9.363 17.5-12" fill="#0a2c48"/><path d="M504.5 186.5q6.865 2.48 14 5 6.894 4.141 11.5 11 1.726 3.38 1 7-1.434 2.091-4 2a382 382 0 0 0-16.5-9.5 55 55 0 0 0-7-2q-13.57-.32-27-.5-1.742-2.585.5-5 11.67-10.61 27.5-8" fill="#092c49"/><path d="M397.5 165.5q26.513-.067 53 1 2.648 1.442 6 1 38.251 3.316 75 13-.658-.098-1 .5l23 7q1.255 1.517 1 3.5a407 407 0 0 1-15.5 4q-10.649-.693-20.5-4-7.135-2.52-14-5-8.306-1.962-17 0-44.374-10.996-91-9 .442-3.353-1-6a31.7 31.7 0 0 1 2-6" fill="#f8a35f"/><path d="M543.5 150.5a195 195 0 0 1 35 13.5 1229 1229 0 0 1 34 18.5l13 10q-3.481-.237-5.5-3-1.619 2.84-4 1l-1.5 3a35.6 35.6 0 0 0 4.5 4q.908-2.972 3-1a21.4 21.4 0 0 0 0 5q4.61 2.356 6.5 7a338 338 0 0 0-17-13.5q-41.201-25.848-88-39.5.352-.895 1.5-1a1150 1150 0 0 1 32 10q2.546-1.466 3.5-3.5-3.97-.473-2-3.5a246 246 0 0 1-15-7" fill="#0c2c4c"/><path d="M629.5 133.5q1.083.627 1.5 2a181.6 181.6 0 0 1 2 42q.073 5.376-1.5 6a358 358 0 0 0-2-50" fill="#1b2050"/><path d="M389.5 154.5h18q8.016-.249 16 .5l-26 1a6.98 6.98 0 0 1 3.5 2.5q2.803-1.758 5.5.5-2.298 1.05-3 3.5a1057 1057 0 0 1 52 3.5 12.9 12.9 0 0 1-5 .5 1239 1239 0 0 0-53-1q1.063-1.356 3-1 .632-4.735-3.5-7-.905 3.279-3.5.5l1-1q-2.987-.56-5-2.5" fill="#0f224a"/><path d="M422.5 141.5h18a319 319 0 0 1 81 13q.513 1.257 2 1 46.799 13.652 88 39.5a338 338 0 0 1 17 13.5 93 93 0 0 1 4.5 10q1 2 0 4-34.965-37.373-84.5-51.5-49.934-13.044-101-16.5a41 41 0 0 0 9-.5l-13-1q-25.044-1.248-36 .5v1h-12q-4.723-.997-10-1a899 899 0 0 1-27 1.5q9.936-3.844 18-7.5a191 191 0 0 1 13-4 203 203 0 0 1 33-2" fill="#f9c82b"/><path d="M407.5 154.5v-1q15.271-.49 30 1a61 61 0 0 0-11 .5q13.532.59 27 2l-3 1q3.76.14 6.5 2.5 2.23-1.13.5-2.5a12.9 12.9 0 0 1 5-.5q-.38 3.49 2 6-1.575 2.403 2 2.5-5.288.269-10 1.5-3.352.442-6-1a12.9 12.9 0 0 0 5-.5 1057 1057 0 0 0-52-3.5q.702-2.45 3-3.5-2.697-2.258-5.5-.5a6.98 6.98 0 0 0-3.5-2.5l26-1a129 129 0 0 0-16-.5" fill="#0c314a"/><path d="M376.5 147.5q-8.064 3.656-18 7.5a899 899 0 0 0 27-1.5q5.277.003 10 1h-6a390 390 0 0 0-42 4.5q13.228-8.829 29-11.5" fill="#f1db2a"/><path d="M447.5 154.5h-10q-14.729-1.49-30-1 10.956-1.748 36-.5l13 1a41 41 0 0 1-9 .5" fill="#fbe629"/><path d="M440.5 141.5q29.47-1.897 58.5 6 2.841-.059 3-2 .861 1.281 2 3 1.418-.608 2-2 1.647 2.201 4.5 2.5l-1 1q7.333 1.483 12 4.5a319 319 0 0 0-81-13" fill="#1a1f4f"/><path d="M416.5 139.5h7q8.016-.249 16 .5-8.772.26-17 1.5a203 203 0 0 0-33 2q12.234-3.4 27-4" fill="#051351"/><path d="M587.5 65.5q16.357 12.186 26.5 30 9.984 18.23 15.5 38a358 358 0 0 1 2 50 133 133 0 0 1-2.5 11q-1.224-1.984-3.5-2l-13-10a208 208 0 0 0-5-4.5 1430 1430 0 0 0-45-23q23.58-37 .5-74.5a192 192 0 0 0-18-15q-1.295-7.03 6.5-9.5l10-1-2-1a29 29 0 0 0 4-1.5q8.447 3.948 15 8a60 60 0 0 0 9 5" fill="#f7af16"/><path d="M482.5 113.5a167 167 0 0 1-5 19.5 772 772 0 0 1 38 8.5q-.626.936-2 1a412 412 0 0 0-36-7.5 3.94 3.94 0 0 1-1-2q2.225-10.188 6-19.5" fill="#141950"/><path d="M483.5 112.5q0 1-1 1-3.775 9.312-6 19.5a3.94 3.94 0 0 0 1 2 412 412 0 0 1 36 7.5q1.374-.064 2-1 14.53 3.345 28 9a246 246 0 0 0 15 7q-1.97 3.027 2 3.5-.954 2.034-3.5 3.5a1150 1150 0 0 0-32-10q-1.148.105-1.5 1-1.487.257-2-1-4.667-3.017-12-4.5l1-1q-2.853-.299-4.5-2.5-.582 1.392-2 2a536 536 0 0 0-2-3q-.159 1.941-3 2-29.03-7.897-58.5-6h-18q8.228-1.24 17-1.5a129 129 0 0 0-16-.5q1.634-2.425 5-2.5-5.499-.585-.5-3.5a26 26 0 0 0 3.5 5 92 92 0 0 1 8-.5q-4.26-4.738-12-6a309 309 0 0 0 25-1.5q3.352-.442 6 1a8.4 8.4 0 0 0-4 .5q2.96.743 6 .5-.32 2.466 1 4.5l-2 1q2 1 4 0-1.32-2.034-1-4.5a9.86 9.86 0 0 0 6-1 341 341 0 0 1 11.5-39q2.101-2.538 5.5-2a4.93 4.93 0 0 1 .5-3 10 10 0 0 1 2.5 4.5 302 302 0 0 1-5.5 15.5q-1.147 2.349.5 4" fill="#08304a"/><path d="M490.5 68.5a366 366 0 0 0-7 16.5q1.833 4.448 4.5.5 1.565 1.684 2 4a161 161 0 0 1 8-15q1.035-1.857 1.5 0a149.3 149.3 0 0 0-16 38q-1.647-1.651-.5-4a302 302 0 0 0 5.5-15.5 10 10 0 0 0-2.5-4.5 4.93 4.93 0 0 0-.5 3q-3.399-.538-5.5 2a341 341 0 0 0-11.5 39 9.86 9.86 0 0 1-6 1q-.32 2.466 1 4.5-2 1-4 0l2-1q-1.32-2.034-1-4.5a18.5 18.5 0 0 1-6-.5 8.4 8.4 0 0 1 4-.5 21.1 21.1 0 0 0 9-1 341 341 0 0 1 11.5-39q4.214-12.428 11.5-23" fill="#15204e"/><path d="M414.5 128.5a1223 1223 0 0 1-24.5 5q5.799-24.127 19.5-45 7.455-8.962 15-18a286 286 0 0 0 11.5-10q-14.742 32.487-21.5 68" fill="#fac82c"/><path d="M587.5 65.5a60 60 0 0 1-9-5q-6.553-4.052-15-8a29 29 0 0 1-4 1.5l2 1-10 1q-7.795 2.47-6.5 9.5a192 192 0 0 1 18 15q23.08 37.5-.5 74.5a1430 1430 0 0 1 45 23 208 208 0 0 1 5 4.5 1229 1229 0 0 0-34-18.5 195 195 0 0 0-35-13.5q-13.47-5.655-28-9a772 772 0 0 0-38-8.5 167 167 0 0 0 5-19.5q1 0 1-1a149.3 149.3 0 0 1 16-38q30.957-45.234 78-16.5 5.7 2.969 10 7.5" fill="#fdc42c"/><path d="M409.5 88.5q-13.701 20.873-19.5 45a1223 1223 0 0 0 24.5-5q2 1.5 0 3a813 813 0 0 1-27 2.5q5.766-19.966 17.5-40.5l1-5q1.927.147 3.5 0" fill="#141c4e"/><path d="M495.5 29.5q13.527-.078 27 1a111.7 111.7 0 0 1 20 5.5q-35.546 1.498-52 32.5-7.286 10.572-11.5 23a341 341 0 0 0-11.5 39 21.1 21.1 0 0 1-9 1q-2.648-1.442-6-1-14.492-.687-29-1 8.238-40.956 29-77 16.73-20.255 43-23" fill="#fcc42b"/><path d="M452.5 52.5q-20.762 36.044-29 77 14.508.313 29 1a309 309 0 0 1-25 1.5q7.74 1.262 12 6a92 92 0 0 0-8 .5 26 26 0 0 1-3.5-5q-4.999 2.915.5 3.5-3.366.075-5 2.5h-7q-1.584-2.065-4-2.5 1.13-2.23 2.5-.5 2.517-1.449 2-4-2.532 3.522-5.5.5 1.856-.348 3-1.5 2-1.5 0-3 6.758-35.513 21.5-68a286 286 0 0 1-11.5 10q.016-2.276 2-3.5a10.3 10.3 0 0 1-4-1.5l.5-1q2.853-.472 6 0 .75-1.75 2.5-2.5-1.817-1.34 0-2.5a58 58 0 0 0 7-1q-1.085-2.496 1-5l-1-2 2-1a3.65 3.65 0 0 0-1-1.5 14.5 14.5 0 0 0 5-4 4.93 4.93 0 0 1 3-.5q-.247 5.025.5 10a4.46 4.46 0 0 1 1.5-2q1.54 1.936 3 0" fill="#0b2b4b"/><path d="M495.5 29.5q14.316-2.055 29 .5a2.43 2.43 0 0 1-2 .5 316 316 0 0 0-27-1" fill="#0c0c54"/><path d="M826.5 367.5q1.94 2.013 2.5 5 .75 55.497.5 111a5907 5907 0 0 1-1.5-109 53 53 0 0 1-1.5-7" fill="#010111"/><path d="M548.5 391.5a4104 4104 0 0 1-78 74q-16.29-25.368-22-55 8.4 3.695 17 7.5a71.6 71.6 0 0 0 22 1q33.21-8.112 61-27.5" fill="#fcb97b"/><path d="M252.5 416.5q1.438.679 2.5 2 4.566 9.443.5 19a28 28 0 0 0-5-1.5 342 342 0 0 0-37 0 61.4 61.4 0 0 0-15 4q-1.006 1.48 0 3.5-3.124-1.627-1-4.5 17.445-6.08 36-5.5 11.131-.15 22 2a98.4 98.4 0 0 0-.5-14 19.2 19.2 0 0 1-2.5-5" fill="#e4c581"/><path d="M200.5 444.5q22.934 1.203 46 1.5 9.466-.36 12.5 8.5a44 44 0 0 1-1.5 16q-28.665-4.566-57 1.5-1.665 5.874 5 6 18.03.412 36 1.5-15.738 1.738-32 .5-6.758.086-11.5-4.5-.841-4.197 3.5-5.5 26.803-4.512 53.5-.5 2.888-4.51 2.5-10 .038-14.462-14-11-2.38 2.919 1 4.5-3.202.952-6-1l2-1-3-3 2-1-38-1-2-1q.343-.598 1-.5" fill="#f4cf84"/><path d="M762.5 414.5q.128 1.494-1 2.5 1.07 24.17 2.5 48.5a44.1 44.1 0 0 0 8.5 13.5 3.65 3.65 0 0 0-1 1.5q6.022 5.26 14 6.5a4.93 4.93 0 0 1-3 .5q-14.488-3.225-20.5-17-5.62-26.824-2-54 1.063-1.321 2.5-2" fill="#5f9337"/><path d="M777.5 472.5q-.658-.098-1 .5 7.581 5.277 17 5.5l2-1a25.9 25.9 0 0 1 1 10q-4.82-.465-9 1-2.872.426-5-1a4.93 4.93 0 0 0 3-.5q-7.978-1.24-14-6.5a3.65 3.65 0 0 1 1-1.5 44.1 44.1 0 0 1-8.5-13.5 3343 3343 0 0 1-2.5-48.5q1.128-1.006 1-2.5 1.126-1.61 3-.5a15.8 15.8 0 0 1 3.5 5.5l1 39q1.024 8.555 7.5 14" fill="#44782e"/><path d="M806.5 367.5q1.585 109.548 4 220-5.375.76-10 3h-3a2602 2602 0 0 1-1-102h-9q4.18-1.465 9-1a25.9 25.9 0 0 0-1-10l-2 1q-9.419-.223-17-5.5.342-.598 1-.5 8.744 5.212 19 4a4399 4399 0 0 1 2.5-99q1.264-7.097 7.5-10" fill="#5f9336"/><path d="M668.5 411.5q53.51 18.26 71.5 72a934 934 0 0 1 30 90q-12.028-6.01-25.5-7.5-37.369-5.656-68 16l-5 5q-6.878-.802-12.5-5.5a760 760 0 0 1-16-79 4.46 4.46 0 0 0-1.5-2q-2.637 3.438-3.5 8-4.308 31.472 4.5 62-7.3-3.147-13.5-10a1610 1610 0 0 0-18.5-68.5 6761 6761 0 0 0 58-80.5" fill="#2986b7"/><path d="M510.5 507.5v5q6.303-.475 12 1h-13q-.442-3.352 1-6" fill="#7c6b5f"/><path d="M783.5 498.5h3q.25 41.003-.5 82l-1.5-3q1-19.243 1-39-.027-20.334-2-40" fill="#abb0b4"/><path d="M237.5 525.5q-3.085 5.778-10 6.5a283 283 0 0 1-28 2.5q-.814-.09-1-1a287 287 0 0 1 29-13.5q3.634-2.356 4-6.5a41.7 41.7 0 0 1 9 1 44.8 44.8 0 0 1-3 11" fill="#f69e59"/><path d="M806.5 367.5q5.634-2.352 9.5 3a165 165 0 0 1 3.5 9v123h6q1.812-1.1 4-1 1.81 2.07-1 3.5 14.57 2.586 19.5-11.5a582 582 0 0 0-.5-59q5.677-8.394 9.5 1a484 484 0 0 1 0 44q-4.305 33.054-37.5 36 .5 34.515-1 69a4835 4835 0 0 0-8 3 29779 29779 0 0 1-4-220" fill="#44772e"/><path d="M847.5 434.5a582 582 0 0 1 .5 59q-4.93 14.086-19.5 11.5 2.81-1.43 1-3.5 16.275-9.02 16.5-28a913 913 0 0 1 1.5-39" fill="#619537"/><path d="M579.5 354.5q13.887 5.154 16.5 20 .588 34.134-18 63L562.5 459a16.24 16.24 0 0 1-8 0q-11.216-10.204-25.5-15.5-25.638 11.642-44.5 32.5 3.5 1 7 0a207 207 0 0 0 34-18q5.145-.688 9 3-17.76 7.52-22 26.5-15.403 8.826-15.5 27-12.725 11.032-11 28-14 14.979-7 34l-25 29q-10.804 17.934 4.5 32 9.796 8.65 22 13.5 13.446 2.582 22.5-7.5a1300 1300 0 0 1 27.5-40q17.359 20.942 44 27.5a749 749 0 0 0 41 51l-32 1q-5.378 2.874-7.5 8.5-3.473-6.475-10.5-8.5a3719 3719 0 0 0-122 0q-5.103 2.1-8.5 6.5l-1 35q-16.574-40.197-60.5-41.5-14.492-.75-29-.5a1635 1635 0 0 0-7.5-96q-1-28.5 0-57a1229 1229 0 0 1 8-60q-1.5-2-3 0-9.243 16.95-13 36a354.6 354.6 0 0 0-6 77q-22.87-31.844-61.5-39.5a9338 9338 0 0 1 52.5-75.5q20.641-28.945 53.5-42.5a690 690 0 0 0 30.5-11.5 351 351 0 0 0-10 31 59.4 59.4 0 0 0-1 19q1.527 4.774 6.5 4 16.898-5.2 31-16a496 496 0 0 1 19 18.5 20.4 20.4 0 0 0 6.5 3.5l1.5-1q-8.856-21.735-26.5-37a321 321 0 0 0-24.5 16.5q2.166-33.886 28-59 3.147.048 6 2 4.335 43.252 27 80.5-10.966 14.13-13.5 32a291 291 0 0 0-1 44q1.404 7.67 4 0a760 760 0 0 1 10-49q9.255-23.223 28.5-39.5a2126 2126 0 0 0 79.5-75.5q11.118-14.604 10.5-33" fill="#2986b7"/><path d="M470.5 499.5q13.917-1.686 10.5 12-6.5 10-13 0-1.668-6.721 2.5-12" fill="#042c45"/><path d="M788.5 488.5h8q-.498 51.257 1 102-.09.814-1 1-1-51.246-2-102-3.352.442-6-1" fill="#43743d"/><path d="M199.5 537.5q12.972 8.866 29 7 4.011 25.044 18 46a4.93 4.93 0 0 1-3-.5 915 915 0 0 0-35.5-36.5q-5.974-8.346-10-17 .575.834 1.5 1" fill="#f59f58"/><path d="M794.5 489.5q1 50.754 2 102 .91-.186 1-1h3q-1.534 2.213-6 2z" fill="#011351"/><path d="M719.5 577.5q20.95-1.526 41 4.5 28.752 11.78 26.5 42.5-14.62-23.702-42.5-27.5-22.824-3.098-44 5.5a223 223 0 0 1-18-8.5 52 52 0 0 1 14-10q11.23-4.852 23-6.5" fill="#2986b8"/><path d="M253.5 555.5q26.563.536 46 18.5 21.46 19.166 27 47.5a23.76 23.76 0 0 1-3.5 11 78.7 78.7 0 0 1-9 12q-3.962-52.135-51.5-74.5a498 498 0 0 1-14-4.5q1.729-5.458 5-10" fill="#2987b8"/><path d="M494.5 577.5q19.414-1.546 29 15l-25 36q-11.982-14.962-30-22 13.076-14.568 26-29" fill="#945417"/><path d="M252.5 416.5a19.2 19.2 0 0 0 2.5 5q.749 6.982.5 14a105.7 105.7 0 0 0-22-2q-18.555-.58-36 5.5-2.124 2.873 1 4.5 1.487-.258 2 1-.657-.098-1 .5l2 1 38 1-2 1 3 3-2 1q2.798 1.952 6 1-3.38-1.581-1-4.5 14.038-3.462 14 11 .388 5.49-2.5 10-26.697-4.012-53.5.5-4.341 1.303-3.5 5.5 4.742 4.586 11.5 4.5 16.262 1.238 32-.5 6.966.034 12.5 4 .851 11.064-6.5 19.5a755 755 0 0 0-28.5-2.5q-31.644 1.577-1.5 9.5a389 389 0 0 1 25 4.5l-2.5 8q-.565 2.163-2.5 3a44.8 44.8 0 0 0 3-11 41.7 41.7 0 0 0-9-1q-.366 4.144-4 6.5a287 287 0 0 0-29 13.5q.186.91 1 1v3q-.925-.166-1.5-1 4.026 8.654 10 17a915 915 0 0 1 35.5 36.5 4.93 4.93 0 0 0 3 .5q17.188 25.257 14 55-4.023 3.897-4.5 10-15.798 34.15-53 27-2.525.275-.5 2-6.356-4.092-11.5-10a132 132 0 0 1-11-16q-15.454-32.712-13.5-69a885 885 0 0 1 3-55.5 4085 4085 0 0 1-5.5-47.5 359 359 0 0 1 1-51q1.73-15.73 17.5-17.5a245.5 245.5 0 0 1 65-5q3.126 1.046 5 3.5" fill="#fdb97d"/><path d="M876.5 607.5a2573 2573 0 0 0 44 40.5q-32.504.583-65-.5-29.25-1.369-59-2 5.236-21.409 1-43a1623 1623 0 0 0 54-15q12.49 9.987 25 20" fill="#dc6c25"/><path d="M274.5 673.5a18.5 18.5 0 0 0-6 4q-17.647 12.643-39 17.5a35.1 35.1 0 0 1-15-1 119 119 0 0 1-12-9.5q-2.025-1.725.5-2 37.202 7.15 53-27 .477-6.103 4.5-10 5.709-6.927 7.5-16 2.416-26.757-13.5-48.5 6.832 1.148 13 5 20.126 13.621 30.5 35.5 5.478 13.202 2 27-11.598 13.85-25.5 25" fill="#f9a05a"/><path d="M461.5 615.5q17.805 2.279 29.5 16 5.733 6.3-2.5 8.5-16.539-2.66-26.5-16.5a32.5 32.5 0 0 1-.5-8" fill="#995718"/><path d="M778.5 689.5q-4.3 21.853-20 37.5a25.9 25.9 0 0 1-9 3.5 840 840 0 0 0-.5-41q-2.648-4.46-7.5-6.5a418.5 418.5 0 0 0-57 1q-3.175 2.597-4.5 6.5a290 290 0 0 1-1.5 24 32 32 0 0 0-7-3 47 47 0 0 1-7-6 123 123 0 0 1 13 7 145 145 0 0 0 1-24q-21.975-8.243-40-23.5a516 516 0 0 1-54-54q-29.637-10.561-52-32.5-1.197.686-1 2a32.6 32.6 0 0 1-4-4.5q-18.141-10.466-39-9.5-.71-10.658 7-17.5a208 208 0 0 1 28 .5q23.947-.1 2-7.5a124.7 124.7 0 0 0-27-3.5q-.97-9.347 6-15.5a290 290 0 0 1 36.5 1.5 34.3 34.3 0 0 0 8-1q.76-2.244-1.5-3.5-11.75-6.168-25-6.5-5.697-1.475-12-1v-5q1.97-8.23 10-11.5a184 184 0 0 1 35 2.5 23.3 23.3 0 0 0 6.5-1q1.08-2.418-.5-4.5-16.733-7.308-35-8.5 2.912-8.606 11-12.5 20.899-2.946 41 4 15.75 5.75 21.5 21.5a5531 5531 0 0 1 18 71 180 180 0 0 1 9.5 8.5 1050 1050 0 0 0 37 23 906 906 0 0 0 62 28 173 173 0 0 1 30.5 23.5q-.477-10.485-7-19-14.342-14.799-33.5-22.5 19.19-3.467 38 2 16.84 6.84 23.5 23.5 4.392 27.005.5 54" fill="#fcb87a"/><path d="M876.5 607.5a638 638 0 0 1 45 40q-.476 1.721-2 2.5l-5 .5a384 384 0 0 0-46-.5l4 1q-4.467 2.772-1 6 12.867.273 25.5 1.5a3.65 3.65 0 0 1 1.5-1q7.569.848 13 2a3767 3767 0 0 1-115-4q-1.145-1.152-3-1.5l4-.5a1027 1027 0 0 0 64 2.5l1-1q-2.115-.552-3-2.5 1.298-.096 3-1 1.329-1.238 1-3-14.009.25-28-.5 9.987-.75 20-.5 32.496 1.083 65 .5a2573 2573 0 0 1-44-40.5" fill="#0f294d"/><path d="M285.5 682.5q-1 0-1-1a109 109 0 0 0 16-14.5q17.567-5.058 27.5-20.5a539 539 0 0 0 2.5 36z" fill="#dd6d25"/><path d="M796.5 655.5a3767 3767 0 0 0 115 4q.99 54.524-2 108 1.49-52.89 1-106-9.841 1.67-18 7.5l-106 46a9.5 9.5 0 0 0-2.5 1.5q-2.328 6.559-7.5 11 19.918-32.056 17-70 .482-2.322 3-2" fill="#df6e26"/><path d="M664.5 705.5a172 172 0 0 1-22-16.5q-35.229-33.817-63-73.5-4.407 1.612-9 .5-26.427-10.179-39-35.5-.197-1.314 1-2 22.363 21.939 52 32.5a516 516 0 0 0 54 54q18.025 15.257 40 23.5a145 145 0 0 1-1 24 123 123 0 0 0-13-7" fill="#f8a15b"/><path d="M149.5 698.5q-1.824 2.927-5 4.5a89.5 89.5 0 0 1-12 4.5 171 171 0 0 0 0 32q-.386 9.29-2 18v-51a79.6 79.6 0 0 0 19-8" fill="#06214c"/><path d="M149.5 698.5a79.6 79.6 0 0 1-19 8v51h-10q-.25-18.507.5-37 .75 17.993.5 36h3q.057-59.638 1-119.5l-.5-15.5a8.9 8.9 0 0 0-3 4q-.598-.342-.5-1 3.967-7.973 8.5 0 .25 36.51 1.5 73a77.2 77.2 0 0 0 16.5-9 36.2 36.2 0 0 0 4-7 112 112 0 0 1 2-19q1.5-4 3 0 5.879 20.163-7.5 36" fill="#619537"/><path d="M120.5 757.5h-1v-37q-19.982 1.01-26-18a116.2 116.2 0 0 1-1.5-32q4.491-2.085 6 3l1 22q1.326 9.823 10.5 13.5 4.975.747 10 .5-.25-40.503.5-81 .315-2.337 1.5-4-.098.658.5 1a8.9 8.9 0 0 1 3-4l.5 15.5a8086 8086 0 0 0-1 119.5h-3q.25-18.007-.5-36a684 684 0 0 0-.5 37" fill="#487b2f"/><path d="M93.5 702.5q6.018 19.01 26 18v37q-1.492-17.733-1-36-19.572 1.2-26-17.5.105-1.148 1-1.5" fill="#031d50"/><path d="M793.5 657.5q2.918 37.944-17 70a103.2 103.2 0 0 1-16 13.5q-5.09 3.113-11 3.5a21.7 21.7 0 0 0 3-4q1.427 1.238 3 .5-1.526-1.574-.5-3.5 2.277.664 3.5-2-2.493-.923-6-2.5a6.8 6.8 0 0 0 3-1.5q-3.396-1.206-6 2-1.827 10.476-4 1-.21 1.604 0 3.5-1.838.845-3-1 .722-1.512.5-3.5 1.275-1.386 3 0 1.418-.608 2-2 1-19.5 0-39-2.609-7.488-10.5-7.5 2 1 0 2 2.668-1.469 5 1-2.988.861-4.5 3.5a274 274 0 0 0-4-4q-2.643.666.5 1.5-4.366 4.881-3-1.5a4.46 4.46 0 0 0-2-1.5 20.6 20.6 0 0 1 6-2 552 552 0 0 0-47 0q-4.624 1.179-6.5 5.5l-1 26-3 2a28.9 28.9 0 0 0-6.5-6 32 32 0 0 1 7 3 290 290 0 0 0 1.5-24q1.325-3.903 4.5-6.5a418.5 418.5 0 0 1 57-1q4.852 2.04 7.5 6.5.75 20.494.5 41a25.9 25.9 0 0 0 9-3.5q15.7-15.647 20-37.5 1.203 2.178 1.5 5 2.514.841 4 3 2.427-.583 3.5-4a3.65 3.65 0 0 1 1.5 1 119.7 119.7 0 0 0 2.5-35.5q-.264-3.539 2-1.5" fill="#0a2a49"/><path d="M261.5 696.5q1.401 1.602 1 4v67q-1.442 2.648-1 6h-9q1.663-1.185 4-1.5-3.843-3.62-9-5a547 547 0 0 0-35-8 142 142 0 0 0-18-6q-9-1-18 0a482 482 0 0 1-36 3.5 133 133 0 0 1 1-23 2455 2455 0 0 0 58-32.5q1.5-1 3 0 12.165 10.523 28 7a115.7 115.7 0 0 0 31-11.5" fill="#e16f26"/><path d="M909.5 767.5a1141 1141 0 0 1-45-12.5 85.3 85.3 0 0 0-23-1l-63 21a14.6 14.6 0 0 0-6 4q5.477.748 11 .5-16.232 1.492-33 1v68h-1v-104q5.91-.387 11-3.5a103.2 103.2 0 0 0 16-13.5q5.172-4.441 7.5-11a9.5 9.5 0 0 1 2.5-1.5l106-46q8.159-5.83 18-7.5.49 53.11-1 106" fill="#cc6025"/><path d="M262.5 848.5v-148q1.203-2.178 1.5-5 1 76 0 152-.574.834-1.5 1" fill="#01254f"/><path d="M252.5 773.5h9q-.442-3.352 1-6v8a1296 1296 0 0 0-1 72q-43.28-.633-86 2h-4q-47.629-25.851-84.5-66a42.5 42.5 0 0 1-5.5-11 19.8 19.8 0 0 0 5.5 1 989 989 0 0 1 27.5-4.5 1200 1200 0 0 0 70.5-6.5 1323 1323 0 0 0 39.5 9.5 169 169 0 0 0 28 1.5" fill="#f79430"/><path d="M941.5 780.5q-.202 5.908-4.5 10-35.133 35.168-78.5 59h-2q-53.256.498-106-1v-68q16.768.492 33-1 29.618-1.788 56-15.5a93.5 93.5 0 0 1 25 1 498 498 0 0 0 52 14q12.418 3.336 25 1.5" fill="#f69430"/><path d="M836.5 790.5q20.825-1.164 39 8.5a437 437 0 0 0-62.5 4.5l-3.5-1a29.8 29.8 0 0 1 6-4.5 559 559 0 0 1 21-7.5" fill="#e67b25"/><path d="M262.5 775.5v73a1915 1915 0 0 1-87 1 1129 1129 0 0 1 86-2q-.497-36.258 1-72" fill="#fcad2d"/><path d="M262.5 848.5q-21.226 1.999-43.5 2-22.006 0-43.5-1 43.611.487 87-1" fill="#001452"/><path d="M749.5 848.5h1q52.744 1.498 106 1-26.496 1-53.5 1-27.269 0-53.5-2" fill="#001352"/><path d="M381.5 697.5a55 55 0 0 0-9-1.5q-43.5-1-87 0 41.254.252 82 1.5h-83a3855 3855 0 0 0-.5 152q48.189 1.977 90.5 0 21.336-1.197 39-13.5 14.157-13.715 12-33.5 1.226 3.703 1.5 8l1-11a42.4 42.4 0 0 0 1.5 8.5q-2.27 3.681 2 5-4 1 0 2-1.926 1.026-3.5-.5-1.124 1.702.5 3a3.65 3.65 0 0 0 1.5-1l1 4q3.372-10.747 8-1l1.5-1.5q-2.951-6.643-10-8.5v-3q1.983.255 3.5-1l4 5q1.37-1.73 2.5.5-2.656.803-1 2.5 3.73-4.124 7 .5-3.632 1.498-4 5.5-.106 3.249 2 1 4.652 5.592 2 12.5a929 929 0 0 1 3 15.5 2143 2143 0 0 0 113 .5q.816-1.075 2-1.5 1.739-16.738.5-34l-1.5-1.5a2380 2380 0 0 0-69-.5v-21q29.005.25 58-.5 1.129-1.006 1-2.5 1.737-14.738.5-30a9.5 9.5 0 0 0-1.5-2.5q-28.995-.75-58-.5v-20q33.26.496 66-1v-1q1.492-16.232 1-33a475 475 0 0 1 1.5 31q.747-4.975.5-10a54 54 0 0 0 2.5 8 128 128 0 0 1 2-3q2.823.89 3 4 3.351-1.808 5 2 1.946-1.926 3.5.5-1.454 2.637-3.5 1.5a7.3 7.3 0 0 1-2 3q-1.574-1.526-3.5-.5 4.446 1.26 1 3 3.257 1.76 3 5.5 4.648.13 1-1.5a7.25 7.25 0 0 0 2-2.5q-1.694-3.044 1.5-1 .738-1.573-.5-3 3.327-2.136 4.5-6l1 4 1-1q3.205 2.731 2.5 7h-3a12.9 12.9 0 0 0-.5-5 20.4 20.4 0 0 1-1.5 5.5q.912 1.305 2.5 1.5 3.78-1.983 1.5 2 .686 1.197 2 1-.25 52.002.5 104 21.397 1.995 42.5 0 0-1 1-1 1.248-35.745 1.5-72l1-3a126 126 0 0 0 8.5 10 630 630 0 0 1 35 47 133 133 0 0 0 14 19.5q21.614 1.236 41-.5a5818 5818 0 0 0 1-152h-39a714 714 0 0 1 38-1.5l-38-1q-2.031-1.94-4-.5-3.687-3.94 2-5.5a4.93 4.93 0 0 0-3-.5q.064-6.59-1.5-1l-1-1-5.5 5q1.543-.306 3 1.5a20.4 20.4 0 0 0-1.5 5.5l-1-3q1.203 4.516-.5 9a4.93 4.93 0 0 1 3 .5q-.174 1.903-1 4l1.5.5q2.74-.765.5-2.5 1.926-1.026 3.5.5a4.93 4.93 0 0 0 .5-3q-1.983-.255-3.5 1-1-1.5 0-3 1.676.247 3.5 1 1.624-1.298.5-3l-1 1q-3.451-1.764-1-4 1.963 3.586 3 0 1 14 0 28-1.276 4.668-3.5 1 .016 1.412-1.5 2l-3-2q-2.643.666.5 1.5-2.776 1.256-5.5 2.5.564-6.46-5-2-.585-5.499-3.5-.5 6.113 3.108-1 4.5-1.44-6.28-4.5 1-1.077-1.426-2.5-.5 1.426 1.077.5 2.5-1.5-2-3 0-7.212-9.046-12-16-1.713-3.415-1.5-7-1.427 1.238-3 .5.982-2.23 3-3.5 1.5 2 3 0 2.254 1.635 1 3.5 1.5 1 3 0-1.426-1.077-.5-2.5 1.275 1.386 3 0a14.7 14.7 0 0 1 4 5l1-1q.76 2.244-1.5 3.5 4.101 3.102 3-1.5 2.318-1.428 5-1-.5-4.5 4-4a28.9 28.9 0 0 1 6.5 6l3-2 1-26q1.876-4.321 6.5-5.5a552 552 0 0 1 47 0 20.6 20.6 0 0 0-6 2 4.46 4.46 0 0 1 2 1.5q-1.366 6.381 3 1.5-3.143-.834-.5-1.5a274 274 0 0 1 4 4q1.512-2.639 4.5-3.5-2.332-2.469-5-1 2-1 0-2 7.891.012 10.5 7.5 1 19.5 0 39-.582 1.392-2 2-1.725-1.386-3 0 .222 1.988-.5 3.5 1.162 1.845 3 1-.21-1.896 0-3.5 2.173 9.476 4-1 2.604-3.206 6-2a6.8 6.8 0 0 1-3 1.5q3.507 1.577 6 2.5-1.223 2.664-3.5 2-1.026 1.926.5 3.5-1.573.738-3-.5a21.7 21.7 0 0 1-3 4v104q26.231 2 53.5 2 27.004 0 53.5-1h2q18.007-.25 36 .5 18 5.71 21 24.5a3856 3856 0 0 0-1.5 88 61 61 0 0 1-2.5 10q-2.408 6.906-9 10a37.4 37.4 0 0 1-11 3.5q-383 1-766 0a141 141 0 0 1-9-2.5q-12.222-6.879-15-21a3856 3856 0 0 0 1.5-88l1.5-9q4.613-11.839 17-15.5 24.995-.75 50-.5h4q21.494 1 43.5 1 22.274-.001 43.5-2 .926-.166 1.5-1 1-76 0-152-.297 2.822-1.5 5 .401-2.398-1-4 1.445-1.295 0-2-5.295 1.285-10 0-1.5-.5-2-2a14.7 14.7 0 0 1 5-1.5l-2-2q4.572-4.683 10.5-4.5a58 58 0 0 1 5.5-7 18.5 18.5 0 0 1 6-4q3.687-.41 5 3-1.346.253-3 1l1 1a41 41 0 0 0 5.5 0v4q.574-.834 1.5-1 0 1 1 1 4.923.722 9.5 3 4.61-1.676 9.5-.5-2.448 1.965-5 1.5 2.38 2.919-1 4.5 1.375.561 2.5 1.5a11.3 11.3 0 0 1 1.5-3.5l-1-1q4.04-.514 6-4a102.2 102.2 0 0 1 24.5.5 6.55 6.55 0 0 0 3-3q1 2 2 0 .907-4.21 4-7l1-7q.587 8.032 1.5 16h16q.305 2.835-2 4.5 1.423.926 2.5-.5l1 2q.539-4.567 2-1a11.3 11.3 0 0 1 3.5-1.5 3.65 3.65 0 0 1-1-1.5 49.9 49.9 0 0 1 14-1q-.329 1.762 1 3a6.85 6.85 0 0 1 4-1q-.278 4.8 1 9a71 71 0 0 0-4 2" fill="#0b324c"/><path d="m678.5 830.5 14 17q.166.925 1 1.5 19.994.75 40 .5-19.386 1.736-41 .5a133 133 0 0 1-14-19.5" fill="#0f0e51"/><path d="M284.5 697.5a5701 5701 0 0 0 1 151q44.243 1.497 89 1-42.311 1.977-90.5 0a3855 3855 0 0 1 .5-152" fill="#010655"/><path d="M560.5 697.5a3026 3026 0 0 1-110 1q-.25 74.502.5 149a2043 2043 0 0 0 110.5.5 286 286 0 0 0 1-33.5q-35.004.25-70-.5a102.2 102.2 0 0 1-.5-24.5 261 261 0 0 0 1.5 23q34.503-.25 69 .5l1.5 1.5q.75 16.493.5 33-1.184.425-2 1.5-56.607 1.24-113-.5v-151z" fill="#f6dc24"/><path d="M371.5 697.5q11.185 1.038 22 4 16.225 6.027 23.5 22 8.175 30.404-19.5 45.5 24.754 7.986 28 33.5 2.157 19.785-12 33.5-17.664 12.303-39 13.5-44.757.497-89-1a5626 5626 0 0 0 1-150q42.757.497 85-1" fill="#fdc026"/><path d="M633.5 701.5v2q-2.468-1.468-4-4a362 362 0 0 0-38-1 6031 6031 0 0 1-1 149h40q-.622-40.042 1.5-80 1.492.85 2.5 2-2.987 38.968-2 79-1 0-1 1a437 437 0 0 1-41.5-1q-.75-75.498-.5-151 20.525-.499 41 1 1.032 2.033 3 3" fill="#fed923"/><path d="M633.5 701.5q-1.968-.967-3-3a421 421 0 0 0-41-1q-.25 75.502.5 151a437 437 0 0 0 41.5 1q-21.103 1.995-42.5 0-.75-51.998-.5-104a619 619 0 0 1 1-49.5 420 420 0 0 1 41 0 24.3 24.3 0 0 1 3 5.5" fill="#160f53"/><path d="m634.5 769.5 9 14a126 126 0 0 1-8.5-10l-1 3q-.252 36.255-1.5 72-.987-40.032 2-79" fill="#0a0c55"/><path d="M379.5 803.5q-.864-5.597-3.5-11-3.043-.802-5.5-3.5a310 310 0 0 0-41-1.5v27q17.008.25 34-.5 5.925-.726 11-3.5-3.396 4.072-9 4.5-18.493.75-37 .5v-29a346 346 0 0 1 44 1.5q8.547 5.352 7 15.5" fill="#090e54"/><path d="M552.5 787.5h1q.129 1.494-1 2.5-28.995.75-58 .5v21q34.503-.25 69 .5l1.5 1.5q1.239 17.262-.5 34 .25-16.507-.5-33l-1.5-1.5a2380 2380 0 0 0-69-.5v-23a842 842 0 0 0 58-1q1 0 1-1" fill="#010a58"/><path d="M379.5 803.5q-.759 4.756-5 7-5.075 2.774-11 3.5-16.992.75-34 .5v-27a310 310 0 0 1 41 1.5q2.457 2.698 5.5 3.5 2.636 5.403 3.5 11" fill="#09324b"/><path d="M493.5 755.5q29.005-.25 58 .5a253 253 0 0 1 1 31.5q0 1-1 1-116-.5 0-1a237 237 0 0 0-1-30.5q-29.61-.241-57-1.5" fill="#fef51a"/><path d="M633.5 703.5a5019 5019 0 0 1 60 79q1.428-2.318 1-5a1561 1561 0 0 0 1-79h38q.25 74.502-.5 149a209.3 209.3 0 0 1-40.5 0l-14-17a630 630 0 0 0-35-47l-9-14q-1.008-1.15-2.5-2a1166 1166 0 0 0-1.5 80h-40a6031 6031 0 0 0 1-149 362 362 0 0 1 38 1q1.532 2.532 4 4" fill="#fdc026"/><path d="M695.5 697.5h39a5818 5818 0 0 1-1 152q-20.006.25-40-.5-.834-.575-1-1.5a209.3 209.3 0 0 0 40.5 0q.75-74.498.5-149h-38q.497 39.758-1 79a1601 1601 0 0 1 1-80" fill="#fef119"/><path d="M560.5 697.5q1.257.513 1 2-1.491 15.73-1 32-134 .5 0 1v1h-67v22q27.39 1.259 57 1.5a237 237 0 0 1 1 30.5q-116 .5 0 1a842 842 0 0 1-58 1v23a261 261 0 0 1-1.5-23 102.2 102.2 0 0 0 .5 24.5q34.996.75 70 .5a286 286 0 0 1-1 33.5q-55.357 1.244-110.5-.5-.75-74.498-.5-149a3026 3026 0 0 0 110-1" fill="#fcc027"/><path d="M560.5 733.5a1090 1090 0 0 1-66 1v20q29.005-.25 58 .5a9.5 9.5 0 0 1 1.5 2.5q1.237 15.262-.5 30h-1a253 253 0 0 0-1-31.5q-28.995-.75-58-.5v-22z" fill="#171355"/><path d="M361.5 729.5q-15.73 1.491-32 1v26a387 387 0 0 0 36-1q-1.144 1.152-3 1.5-16.992.75-34 .5v-28z" fill="#020a58"/><path d="M361.5 729.5q16.741 4.482 11.5 21-2.69 4.212-7.5 5a387 387 0 0 1-36 1v-26q16.27.491 32-1" fill="#0a314b"/><path d="M561.5 699.5q.492 16.768-1 33-134-.5 0-1-.491-16.27 1-32" fill="#feee1d"/><path d="M284.5 697.5h87a1807 1807 0 0 1-85 1 5626 5626 0 0 1-1 150 5701 5701 0 0 1-1-151" fill="#fad723"/><path d="M560.5 697.5q1.599-1.788 2.5 1 .75 10.989.5 22a50.5 50.5 0 0 1-.5 10 475 475 0 0 0-1.5-31q.257-1.487-1-2" fill="#011452"/><path d="M381.5 697.5a37.7 37.7 0 0 1 13 3.5q-.343.598-1 .5a128 128 0 0 0-22-4h-4a3346 3346 0 0 0-82-1.5q43.5-1 87 0 4.63.389 9 1.5" fill="#081553"/><path d="M514.5 877.5q53.895-.852 49.5 53-11.366 37.57-50.5 32.5-23.25-7.25-30.5-30.5-7.411-41.214 31.5-55" fill="#fcf9f3"/><path d="M608.5 877.5q39.339-3.718 50.5 34 5.101 38.83-31.5 51.5-39.153 5.063-50.5-32.5-5.554-39.597 31.5-53" fill="#fcfaf4"/><path d="M233.5 879.5v31q13.227 1.49 27 1v-31q.166-.925 1-1.5 9.487-.75 19-.5a1159 1159 0 0 1 .5 83 50.5 50.5 0 0 1-20 0 512 512 0 0 1-.5-32h-27v32a53.7 53.7 0 0 1-20.5 0 1680 1680 0 0 1 0-82 53.7 53.7 0 0 1 20.5 0" fill="#fdfbf5"/><path d="M405.5 878.5q18.007-.25 36 .5 33.523 5.296 26.5 38.5-3.875 9.125-12.5 14l15 30a81.2 81.2 0 0 1-22 .5 916 916 0 0 1-13-25.5 25.9 25.9 0 0 0-10-1q.25 13.01-.5 26-10.5 2-21 0-1-40.5 0-81 1.075-.816 1.5-2" fill="#fcf9f3"/><path d="M135.5 878.5q32.004-.25 64 .5a45.6 45.6 0 0 1 0 19q-10.488.75-21 .5v63a61 61 0 0 1-22 0v-63h-21a50.5 50.5 0 0 1 0-20" fill="#fbf9f4"/><path d="M351.5 913.5a62.8 62.8 0 0 1-1 15.5q-14.991.75-30 .5v14q17.008-.25 34 .5 2 9 0 18-28.11 1.229-56-.5-.25-40.503.5-81l1.5-1.5a487 487 0 0 1 54 .5 56.8 56.8 0 0 1 .5 18 303 303 0 0 1-34.5 1v14a249 249 0 0 1 31 1" fill="#fbf9f3"/><path d="M721.5 931.5h-27v30a53.7 53.7 0 0 1-20.5 0 1680 1680 0 0 1 0-82 446 446 0 0 1 51.5-.5l1.5 1.5a64.2 64.2 0 0 1 0 16l-1.5 1.5q-15.492.75-31 .5v15q13.509-.25 27 .5a39.4 39.4 0 0 1 0 17.5" fill="#fdfaf4"/><path d="M763.5 898.5q-1.479 6.705-1 14h30q1.988 8.101 0 16.5-14.492.75-29 .5v14q17.008-.25 34 .5 2 9 0 18a518 518 0 0 1-55.5-.5q-1-40.5 0-81l1.5-1.5a702 702 0 0 1 53 0q1.713 9.126.5 18.5a286 286 0 0 1-33.5 1" fill="#fbf9f3"/><path d="M817.5 878.5q18.007-.25 36 .5 34.458 5.657 25.5 39.5-3.453 9.203-12.5 13a1322 1322 0 0 1 16 30.5q-11.5 1-23 0a899 899 0 0 0-12.5-25.5q-5.091-1.434-10.5-1 .25 13.01-.5 26a50.5 50.5 0 0 1-20 0q-1-40.5 0-81 1.075-.816 1.5-2" fill="#fcfaf4"/><path d="M280.5 878.5q-9.513-.25-19 .5-.834.575-1 1.5-1.49 14.728-1 30h-26v-31q1.49 14.728 1 30h24q-.25-15.009.5-30l1.5-1.5q10.27-1.231 20 .5" fill="#010619"/><path d="M260.5 880.5v31q-13.773.49-27-1h26q-.49-15.272 1-30" fill="#54707b"/><path d="M611.5 897.5q19.363-3.452 25.5 15 3.325 15.456-6.5 27.5-18.118 11.386-29.5-6.5-4.926-13.022 0-26 4.107-6.36 10.5-10" fill="#0b3049"/><path d="M444.5 915.5q-1.739 2.625-5 3-6.202-1.477-13-1v-18q8.685-.606 17 1.5 5.505 6.817 1 14.5" fill="#0b334c"/><path d="M837.5 897.5a113 113 0 0 1 15 .5q7.26 2.006 7 9.5.029 7.715-7 10.5-7.984.749-16 .5a117 117 0 0 1 1-21" fill="#113048"/><path d="M439.5 898.5h-14v20q-1.487-10.22-1-21 7.793-.481 15 1" fill="#859ba1"/><path d="m104.5 865.5-1.5 9a3856 3856 0 0 1-1.5 88q-.25-45.502.5-91 .36-3.528 2.5-6" fill="#02020f"/><path d="M517.5 897.5q27.231-.513 25.5 27-5.595 26.667-30.5 16.5-15.099-16.568-4.5-36.5 4.238-4.464 9.5-7" fill="#0c3049"/><path d="M135.5 878.5a707 707 0 0 1 65-.5q1.717 10.128.5 20.5a119 119 0 0 1-21.5 1 961 961 0 0 1-1 62v-63q10.512.25 21-.5a45.6 45.6 0 0 0 0-19 2047 2047 0 0 0-64-.5" fill="#01020f"/><path d="M763.5 898.5v13q14.771-.49 29 1h-30q-.479-7.295 1-14" fill="#496c7a"/><path d="M439.5 898.5q5.385.066 7.5 5 1 4.5 0 9-.565 2.163-2.5 3 4.505-7.683-1-14.5-8.315-2.106-17-1.5v18q6.798-.477 13 1h-14v-20z" fill="#040717"/><path d="M915.5 874.5q.25 45.003-.5 90-.58 4.649-3.5 8a61 61 0 0 0 2.5-10q.252-44.254 1.5-88" fill="#02030f"/><path d="M135.5 898.5h21v63a961 961 0 0 1-1-62q-10.281.486-20-1" fill="#00000c"/><path d="M280.5 878.5q1.999 20.475 2 42l-.5 42q-10.63 1.719-21.5.5l-1.5-1.5a481 481 0 0 1-.5-31h-24q.492 15.77-1 31v-32h27q-.25 16.008.5 32a50.5 50.5 0 0 0 20 0q1.236-41.608-.5-83" fill="#0f141e"/><path d="M721.5 931.5q-12.726 1.49-26 1 .49 14.771-1 29v-30z" fill="#00010a"/><path d="M298.5 961.5a530 530 0 0 0 56 .5q2-9 0-18a578 578 0 0 0-34-.5v-14q15.009.25 30-.5a62.8 62.8 0 0 0 1-15.5q1.977 7.236 0 16.5-14.991.75-30 .5v11a201.5 201.5 0 0 1 34 1.5 50.5 50.5 0 0 1 0 20l-28.5.5q-14.787-.002-28.5-2" fill="#091728"/><path d="M902.5 982.5q-3.585 3.792-9 4.5-385.5 1-771 0-3.568-1.074-6-3.5 4.431 1.392 9 2.5 383 1 766 0a37.4 37.4 0 0 0 11-3.5" fill="#00000b"/></svg>