<?xml version="1.0" encoding="UTF-8" standalone="yes"?>
<svg version="1.2" width="1000" height="1000" viewBox="0 0 1000 1000" xml:space="preserve" baseProfile="tiny-ps" xmlns="http://www.w3.org/2000/svg">
  <title>bimi-svg-tiny-12-ps</title>
  <desc>Created with Fabric.js 3.5.0</desc>
  <defs>
</defs>
  <rect x="0" y="0" width="100%" height="100%" fill="#ffffff"/>
  <g transform="matrix(5.1619 0 0 -7.5315 518.4195 502.1245)" id="path12">
    <path transform=" translate(-126, -72)" d="M 0 0 H 252 V 144 H 0 Z" stroke-linecap="butt" stroke="none" stroke-width="1" stroke-dasharray="none" stroke-dashoffset="0" stroke-linejoin="miter" stroke-miterlimit="4" fill="rgb(42,91,44)" fill-rule="nonzero"/>
  </g>
  <g transform="matrix(17.9925 0 0 -17.9925 500.0001 500)" id="path24">
    <path transform=" translate(-17.9396, -17.7059)" d="M 0 0 V 21.388 H 16.479 V 17.181 H 4.206 V 4.206 h 19.345 c 0.219 0.124 0.519 0.305 0.877 0.542 c 0.807 0.535 1.902 1.364 2.982 2.487 c 2.166 2.271 4.254 5.597 4.262 10.411 c -0.026 4.889 -1.893 8.067 -4.65 10.278 c -2.761 2.194 -6.564 3.287 -10.192 3.281 c -14.493 0 -15.179 0 -15.194 -0.001 v 4.207 c 0.015 0.001 0.701 0.001 15.194 0 c 4.435 -0.005 9.107 -1.279 12.8 -4.183 c 3.7 -2.889 6.276 -7.541 6.249 -13.582 C 35.887 11.535 33.126 7.09 30.441 4.318 C 27.749 1.527 25.123 0.276 24.979 0.204 L 24.551 0 Z" stroke-linecap="butt" stroke="none" stroke-width="1" stroke-dasharray="none" stroke-dashoffset="0" stroke-linejoin="miter" stroke-miterlimit="4" fill="rgb(255,255,255)" fill-rule="nonzero"/>
  </g>
  <g transform="matrix(3.4642 0 0 -3.4642 786.9525 336.2285)" id="path68">
    <path transform=" translate(6.539, 5.805)" d="M 0 0 H -5.414 V -13.63 H -7.662 V 0 h -5.416 V 2.02 H 0 Z" stroke-linecap="butt" stroke="none" stroke-width="1" stroke-dasharray="none" stroke-dashoffset="0" stroke-linejoin="miter" stroke-miterlimit="4" fill="rgb(255,255,255)" fill-rule="nonzero"/>
  </g>
</svg>