<?xml version="1.0" encoding="UTF-8" standalone="yes"?>
<svg width="1000" height="1000" viewBox="0 0 1000 1000" version="1.2" baseProfile="tiny-ps" xmlns="http://www.w3.org/2000/svg">
  <title>bimi-svg-tiny-12-ps</title>
  <g id="path12">
    <path id="Path" fill="#2a5b2c" stroke="none" d="M -131.979904 1044.392456 L 1168.818848 1044.392456 L 1168.818848 -40.143555 L -131.979904 -40.143555 Z"/>
  </g>
  <g id="path24">
    <path id="path1" fill="#ffffff" stroke="none" d="M 177.221848 818.573425 L 177.221848 433.749817 L 473.720245 433.749817 L 473.720245 509.444275 L 252.8983 509.444275 L 252.8983 742.896973 L 600.963196 742.896973 C 604.903564 740.665894 610.301331 737.409241 616.742615 733.14502 C 631.262573 723.519043 650.964355 708.603271 670.39624 688.397705 C 709.368042 647.536743 746.93634 587.693665 747.080322 501.077759 C 746.612488 413.112427 713.020508 355.932251 663.415161 316.150818 C 613.737854 276.675293 545.312439 257.00946 480.035614 257.117432 C 219.270325 257.117432 206.92746 257.117432 206.657578 257.135437 L 206.657578 181.440979 C 206.92746 181.423035 219.270325 181.423035 480.035614 181.440979 C 559.832336 181.531006 643.893311 204.453369 710.3396 256.703613 C 776.911926 308.68396 823.260498 392.385071 822.77478 501.077759 C 822.918701 611.029907 773.241394 691.006592 724.931519 740.881836 C 676.495728 791.098877 629.247437 813.607483 626.656494 814.902954 L 618.95575 818.573425 Z"/>
  </g>
</svg>