<svg height="375" viewBox="0 0 375 375" width="375" xmlns="http://www.w3.org/2000/svg" xmlns:xlink="http://www.w3.org/1999/xlink"><clipPath id="a"><path d="m69.179688 62.722656h236.164062v76.3125h-236.164062zm0 0"/></clipPath><g clip-path="url(#a)"><path d="m187.304688 61.917969 40.035156 26.089843 78.003906 50.765626v209.554687h-236.164062v-209.507813l78-50.765624zm111.160156 80.609375-74.886719-48.75-36.273437-23.664063-36.410157 23.664063-74.882812 48.75v198.933594h222.40625v-198.933594zm0 0" fill="#3e2b05"/></g><g fill="#3e2b05"><path d="m.660156-20.355469h5.441406v20.2890628h2.3125v-20.2890628h5.441407v-2.144531h-13.195313zm0 0" transform="translate(95.427 272.628)"/><path d="m4.785156 0v-10.027344h10.191406v10.027344h2.3125v-22.433594h-2.3125v10.09375h-10.191406v-10.09375h-2.3125v22.433594zm0 0" transform="translate(109.94 272.628)"/><path d="m15.800781 0v-2.144531h-11.015625v-7.984375h10.6875v-2.175782h-10.6875v-7.984374h11.015625v-2.144532h-13.328125v22.433594zm0 0" transform="translate(129.698 272.628)"/><path d="m4.785156-11.085938v-9.136718h5.210938c1.351562 0 2.441406.429687 3.265625 1.285156.792969.859375 1.222656 1.914062 1.222656 3.234375s-.429687 2.40625-1.289063 3.296875c-.855468.890625-1.914062 1.320312-3.199218 1.320312zm12.007813-4.585937c0-1.914063-.726563-3.5625-2.113281-4.847656-1.351563-1.253907-3.035157-1.914063-5.011719-1.914063h-7.195313v22.433594h2.3125v-8.875h2.671875l6.597657 8.875h3.101562l-6.929688-8.875c1.75-.097656 3.234376-.726562 4.453126-1.878906 1.386718-1.289063 2.113281-2.9375 2.113281-4.917969zm0 0" transform="translate(156.878 272.628)"/><path d="m22.234375-11.28125c0 2.570312-.921875 4.75-2.703125 6.53125-1.816406 1.8125-3.992188 2.703125-6.53125 2.703125-2.542969 0-4.71875-.890625-6.5-2.703125-1.816406-1.78125-2.707031-3.960938-2.707031-6.53125 0-2.507812.890625-4.6875 2.707031-6.5 1.78125-1.78125 3.957031-2.707031 6.5-2.707031 2.539062 0 4.714844.925781 6.53125 2.707031 1.78125 1.8125 2.703125 3.992188 2.703125 6.5zm2.3125 0c0-1.585938-.332031-3.070312-.925781-4.488281-.59375-1.386719-1.417969-2.605469-2.472656-3.664063-1.058594-1.019531-2.277344-1.84375-3.664063-2.4375-1.417969-.597656-2.902344-.925781-4.484375-.925781-1.585938 0-3.101562.328125-4.488281.925781-1.386719.59375-2.605469 1.417969-3.660157 2.4375-1.058593 1.058594-1.882812 2.277344-2.476562 3.664063-.59375 1.417969-.890625 2.902343-.890625 4.488281 0 1.582031.296875 3.097656.890625 4.484375.59375 1.417969 1.417969 2.640625 2.476562 3.695313 1.054688 1.054687 2.273438 1.882812 3.660157 2.476562s2.902343.890625 4.488281.890625c1.582031 0 3.066406-.296875 4.484375-.890625 1.386719-.59375 2.605469-1.421875 3.664063-2.476562 1.054687-1.054688 1.878906-2.277344 2.472656-3.695313.59375-1.386719.925781-2.902344.925781-4.484375zm0 0" transform="translate(174.822 272.628)"/><path d="m22.234375-11.28125c0 2.570312-.921875 4.75-2.703125 6.53125-1.816406 1.8125-3.992188 2.703125-6.53125 2.703125-2.542969 0-4.71875-.890625-6.5-2.703125-1.816406-1.78125-2.707031-3.960938-2.707031-6.53125 0-2.507812.890625-4.6875 2.707031-6.5 1.78125-1.78125 3.957031-2.707031 6.5-2.707031 2.539062 0 4.714844.925781 6.53125 2.707031 1.78125 1.8125 2.703125 3.992188 2.703125 6.5zm2.3125 0c0-1.585938-.332031-3.070312-.925781-4.488281-.59375-1.386719-1.417969-2.605469-2.472656-3.664063-1.058594-1.019531-2.277344-1.84375-3.664063-2.4375-1.417969-.597656-2.902344-.925781-4.484375-.925781-1.585938 0-3.101562.328125-4.488281.925781-1.386719.59375-2.605469 1.417969-3.660157 2.4375-1.058593 1.058594-1.882812 2.277344-2.476562 3.664063-.59375 1.417969-.890625 2.902343-.890625 4.488281 0 1.582031.296875 3.097656.890625 4.484375.59375 1.417969 1.417969 2.640625 2.476562 3.695313 1.054688 1.054687 2.273438 1.882812 3.660157 2.476562s2.902343.890625 4.488281.890625c1.582031 0 3.066406-.296875 4.484375-.890625 1.386719-.59375 2.605469-1.421875 3.664063-2.476562 1.054687-1.054688 1.878906-2.277344 2.472656-3.695313.59375-1.386719.925781-2.902344.925781-4.484375zm0 0" transform="translate(200.847 272.628)"/><path d="m15.800781-20.289062v-2.144532h-13.328125v22.433594h2.3125v-10.128906h10.6875v-2.175782h-10.6875v-7.984374zm0 0" transform="translate(226.872 272.628)"/><path d="m15.800781 0v-2.144531h-11.015625v-7.984375h10.6875v-2.175782h-10.6875v-7.984374h11.015625v-2.144532h-13.328125v22.433594zm0 0" transform="translate(243.332 272.628)"/><path d="m4.785156-11.085938v-9.136718h5.210938c1.351562 0 2.441406.429687 3.265625 1.285156.792969.859375 1.222656 1.914062 1.222656 3.234375s-.429687 2.40625-1.289063 3.296875c-.855468.890625-1.914062 1.320312-3.199218 1.320312zm12.007813-4.585937c0-1.914063-.726563-3.5625-2.113281-4.847656-1.351563-1.253907-3.035157-1.914063-5.011719-1.914063h-7.195313v22.433594h2.3125v-8.875h2.671875l6.597657 8.875h3.101562l-6.929688-8.875c1.75-.097656 3.234376-.726562 4.453126-1.878906 1.386718-1.289063 2.113281-2.9375 2.113281-4.917969zm0 0" transform="translate(261.605 272.628)"/><path d="m3.4375-.617188v.617188h32.230469c11.476562 0 21.648437-4.535156 21.648437-16.011719 0-10.585937-8.660156-15.050781-18.347656-15.601562 8.3125-1.375 15.804688-4.605469 15.804688-13.746094 0-11.0625-10.445313-13.882813-21.578126-13.882813h-29.757812v.621094h.824219c2.0625.066406 7.285156.960938 7.285156 7.285156v43.433594c0 6.253906-5.085937 7.144532-7.21875 7.285156zm29.757812-31.132812h-7.421874v-26.871094h7.421874c4.945313 0 7.558594 4.945313 7.558594 13.261719 0 8.386719-2.613281 13.609375-7.558594 13.609375zm2.472657 31.132812h-3.023438c-1.785156-.070312-6.871093-.824218-6.871093-7.148437v-23.296875h9.894531c4.949219 0 7.628906 6.664062 7.628906 15.050781 0 8.382813-2.679687 15.394531-7.628906 15.394531zm0 0" transform="translate(88.991 205.26)"/><path d="m3.4375-.617188v.617188h49.753906l4.539063-15.53125h-.621094c-3.296875 9.964844-11.40625 14.914062-23.226563 14.914062-5.019531 0-8.109374-2.75-8.109374-7.285156v-22.886718h10.308593c6.320313.207031 6.941407 5.910156 6.941407 7.492187v.34375h.617187v-16.21875h-.617187v.34375c0 1.578125-.621094 7.285156-6.941407 7.421875h-10.308593l.066406-27.214844h4.949218c16.632813 0 20.203126 10.171875 20.890626 13.675782l.207031 1.234374.550781-.273437-2.335938-15.257813h-46.664062v.621094c5.015625 0 8.109375 2.746094 8.109375 7.285156v43.433594c0 4.535156-3.09375 7.285156-8.109375 7.285156zm0 0" transform="translate(153.167 205.26)"/><path d="m12.921875-49.277344 43.363281 49.277344h.6875v-51.613281c.207032-7.351563 7.835938-6.941407 7.835938-6.941407v-.6875h-16.289063v.621094c0 .066406 7.628907-.34375 7.835938 7.007813v30.445312l-33.609375-38.074219h-19.308594v.6875c4.878906 0 7.628906 2.476563 7.765625 8.316407v42.679687c-.136719 6.320313-5.910156 6.871094-7.421875 6.941406h-.34375v.617188h16.21875v-.617188h-.34375c-1.582031-.070312-7.285156-.621093-7.492188-6.941406v-42.886718zm0 0" transform="translate(217.755 205.26)"/></g><path d="m.500206-.0004309h61.855411" fill="none" stroke="#3e2b05" stroke-linecap="round" transform="matrix(3.74683 0 0 3.75 69.645 223.693)"/></svg>