<?xml version="1.0" encoding="UTF-8" standalone="no" ?>
<!DOCTYPE svg PUBLIC "-//W3C//DTD SVG 1.1//EN" "http://www.w3.org/Graphics/SVG/1.1/DTD/svg11.dtd">
<svg xmlns="http://www.w3.org/2000/svg" xmlns:xlink="http://www.w3.org/1999/xlink" version="1.1" width="500" height="500" viewBox="0 0 500 500" xml:space="preserve">
<desc>Created with Fabric.js 4.6.0</desc>
<defs>
</defs>
<g transform="matrix(1 0 0 0.85 249.76 245.62)" id="3KpzC-GQAdktBrOQsRm3T"  >
<path style="stroke: none; stroke-width: 1; stroke-dasharray: none; stroke-linecap: butt; stroke-dashoffset: 0; stroke-linejoin: miter; stroke-miterlimit: 4; fill: rgb(62,43,5); fill-rule: nonzero; opacity: 1;" vector-effect="non-scaling-stroke"  transform=" translate(0, 0)" d="M 0.04297 -143.20508 L 40.078129999999994 -117.11524000000001 L 118.08204 -66.34961000000001 L 118.08204 143.20507999999998 L 0.5800100000000015 143.20507999999998 L -36.42666 143.20507999999998 L -118.08202 143.20507999999998 L -118.08202 -66.30273000000003 L -40.08202 -117.06835000000002 z M 111.20312 -62.5957 L 36.3164 -111.3457 L 0.042960000000000775 -135.00976 L -36.3672 -111.3457 L -111.25001 -62.595699999999994 L -111.25001 136.33789000000002 L 0.5799899999999951 136.33789000000002 L 111.15624 136.33789000000002 L 111.15624 -62.595699999999994 z M 111.20312 -62.5957" stroke-linecap="round" />
</g>
<g transform="matrix(1 0 0 1 165.18 323.84)" id="a5u_IY0lCdJxxlBSi87Tw"  >
<path style="stroke: none; stroke-width: 1; stroke-dasharray: none; stroke-linecap: butt; stroke-dashoffset: 0; stroke-linejoin: miter; stroke-miterlimit: 4; fill: rgb(62,43,5); fill-rule: nonzero; opacity: 1;" vector-effect="non-scaling-stroke"  transform=" translate(-7.26, 11.28)" d="M 0.660156 -20.355469 L 6.1015619999999995 -20.355469 L 6.1015619999999995 -0.06640619999999942 L 8.414062 -0.06640619999999942 L 8.414062 -20.355469 L 13.855469 -20.355469 L 13.855469 -22.5 L 0.6601559999999989 -22.5 z M 0.660156 -20.355469" stroke-linecap="round" />
</g>
<g transform="matrix(1 0 0 1 182.32 323.91)" id="MLYoUHdxVIAJ_BKdXk3zE"  >
<path style="stroke: none; stroke-width: 1; stroke-dasharray: none; stroke-linecap: butt; stroke-dashoffset: 0; stroke-linejoin: miter; stroke-miterlimit: 4; fill: rgb(62,43,5); fill-rule: nonzero; opacity: 1;" vector-effect="non-scaling-stroke"  transform=" translate(-9.88, 11.22)" d="M 4.785156 0 L 4.785156 -10.027344 L 14.976562000000001 -10.027344 L 14.976562000000001 0 L 17.289062 0 L 17.289062 -22.433594 L 14.976562000000001 -22.433594 L 14.976562000000001 -12.339844 L 4.785156000000001 -12.339844 L 4.785156000000001 -22.433594 L 2.4726560000000006 -22.433594 L 2.4726560000000006 0 z M 4.785156 0" stroke-linecap="round" />
</g>
<g transform="matrix(1 0 0 1 201.33 323.91)" id="UzHiybwF7x1vGMCbJzynn"  >
<path style="stroke: none; stroke-width: 1; stroke-dasharray: none; stroke-linecap: butt; stroke-dashoffset: 0; stroke-linejoin: miter; stroke-miterlimit: 4; fill: rgb(62,43,5); fill-rule: nonzero; opacity: 1;" vector-effect="non-scaling-stroke"  transform=" translate(-9.14, 11.22)" d="M 15.800781 0 L 15.800781 -2.144531 L 4.785156000000001 -2.144531 L 4.785156000000001 -10.128906 L 15.472656 -10.128906 L 15.472656 -12.304688 L 4.785156000000001 -12.304688 L 4.785156000000001 -20.289062 L 15.800781 -20.289062 L 15.800781 -22.433594 L 2.4726560000000006 -22.433594 L 2.4726560000000006 0 z M 15.800781 0" stroke-linecap="round" />
</g>
<g transform="matrix(1 0 0 1 229.19 323.91)" id="lzfEcBZjXYDVysqgTFJyu"  >
<path style="stroke: none; stroke-width: 1; stroke-dasharray: none; stroke-linecap: butt; stroke-dashoffset: 0; stroke-linejoin: miter; stroke-miterlimit: 4; fill: rgb(62,43,5); fill-rule: nonzero; opacity: 1;" vector-effect="non-scaling-stroke"  transform=" translate(-9.81, 11.22)" d="M 4.785156 -11.085938 L 4.785156 -20.222656 L 9.996094 -20.222656 C 11.347655999999999 -20.222656 12.4375 -19.792969 13.261719 -18.9375 C 14.054687999999999 -18.078125 14.484375 -17.023438 14.484375 -15.703125 C 14.484375 -14.382812000000001 14.054688 -13.296875 13.195312 -12.40625 C 12.339844 -11.515625 11.28125 -11.085938 9.996094 -11.085938 z M 16.792969 -15.671875 C 16.792969 -17.585938 16.066406 -19.234375 14.679687999999999 -20.519531 C 13.328124999999998 -21.773438000000002 11.644530999999999 -22.433594 9.667969 -22.433594 L 2.4726559999999997 -22.433594 L 2.4726559999999997 0 L 4.785156 0 L 4.785156 -8.875 L 7.457031 -8.875 L 14.054687999999999 0 L 17.15625 0 L 10.226562000000001 -8.875 C 11.976562000000001 -8.972656 13.460938000000002 -9.601562 14.679688000000002 -10.753906 C 16.066406 -12.042969000000001 16.792969000000003 -13.691406 16.792969000000003 -15.671875 z M 16.792969 -15.671875" stroke-linecap="round" />
</g>
<g transform="matrix(1 0 0 1 250.34 323.86)" id="GIGw416WkGpOZvIRN8qyn"  >
<path style="stroke: none; stroke-width: 1; stroke-dasharray: none; stroke-linecap: butt; stroke-dashoffset: 0; stroke-linejoin: miter; stroke-miterlimit: 4; fill: rgb(62,43,5); fill-rule: nonzero; opacity: 1;" vector-effect="non-scaling-stroke"  transform=" translate(-13.02, 11.27)" d="M 22.234375 -11.28125 C 22.234375 -8.710938 21.3125 -6.53125 19.53125 -4.75 C 17.714844 -2.9375 15.539062 -2.046875 13 -2.046875 C 10.457031 -2.046875 8.28125 -2.9375 6.5 -4.75 C 4.683594 -6.53125 3.792969 -8.710938 3.792969 -11.28125 C 3.792969 -13.789062 4.683593999999999 -15.96875 6.5 -17.78125 C 8.28125 -19.5625 10.457031 -20.488281 13 -20.488281 C 15.539062 -20.488281 17.714844 -19.5625 19.53125 -17.78125 C 21.3125 -15.96875 22.234375 -13.789062 22.234375 -11.28125 z M 24.546875 -11.28125 C 24.546875 -12.867188 24.214844 -14.351562 23.621094 -15.769531 C 23.027344 -17.15625 22.203125 -18.375 21.148438 -19.433594 C 20.089844 -20.453125 18.871094 -21.277344 17.484375 -21.871094 C 16.066406 -22.46875 14.582031 -22.796875 13 -22.796875 C 11.414062 -22.796875 9.898438 -22.46875 8.511719 -21.871094 C 7.124999999999999 -21.277344 5.90625 -20.453125 4.8515619999999995 -19.433594 C 3.7929689999999994 -18.375 2.9687499999999996 -17.15625 2.3749999999999996 -15.769530999999999 C 1.7812499999999996 -14.351562 1.4843749999999996 -12.867187999999999 1.4843749999999996 -11.28125 C 1.4843749999999996 -9.699219 1.7812499999999996 -8.183594 2.3749999999999996 -6.796875 C 2.9687499999999996 -5.378906 3.7929689999999994 -4.15625 4.8515619999999995 -3.101562 C 5.90625 -2.046875 7.125 -1.21875 8.511719 -0.625 C 9.898437999999999 -0.03125 11.414062 0.265625 13 0.265625 C 14.582031 0.265625 16.066406 -0.03125 17.484375 -0.625 C 18.871094 -1.21875 20.089844 -2.046875 21.148438 -3.101562 C 22.203125 -4.15625 23.027344 -5.378906 23.621094 -6.796875 C 24.214844 -8.183594 24.546875 -9.699219 24.546875 -11.28125 z M 24.546875 -11.28125" stroke-linecap="round" />
</g>
<g transform="matrix(1 0 0 1 276.36 323.86)" id="2kRwxzbknCiVWAgepP3N_"  >
<path style="stroke: none; stroke-width: 1; stroke-dasharray: none; stroke-linecap: butt; stroke-dashoffset: 0; stroke-linejoin: miter; stroke-miterlimit: 4; fill: rgb(62,43,5); fill-rule: nonzero; opacity: 1;" vector-effect="non-scaling-stroke"  transform=" translate(-13.02, 11.27)" d="M 22.234375 -11.28125 C 22.234375 -8.710938 21.3125 -6.53125 19.53125 -4.75 C 17.714844 -2.9375 15.539062 -2.046875 13 -2.046875 C 10.457031 -2.046875 8.28125 -2.9375 6.5 -4.75 C 4.683594 -6.53125 3.792969 -8.710938 3.792969 -11.28125 C 3.792969 -13.789062 4.683593999999999 -15.96875 6.5 -17.78125 C 8.28125 -19.5625 10.457031 -20.488281 13 -20.488281 C 15.539062 -20.488281 17.714844 -19.5625 19.53125 -17.78125 C 21.3125 -15.96875 22.234375 -13.789062 22.234375 -11.28125 z M 24.546875 -11.28125 C 24.546875 -12.867188 24.214844 -14.351562 23.621094 -15.769531 C 23.027344 -17.15625 22.203125 -18.375 21.148438 -19.433594 C 20.089844 -20.453125 18.871094 -21.277344 17.484375 -21.871094 C 16.066406 -22.46875 14.582031 -22.796875 13 -22.796875 C 11.414062 -22.796875 9.898438 -22.46875 8.511719 -21.871094 C 7.124999999999999 -21.277344 5.90625 -20.453125 4.8515619999999995 -19.433594 C 3.7929689999999994 -18.375 2.9687499999999996 -17.15625 2.3749999999999996 -15.769530999999999 C 1.7812499999999996 -14.351562 1.4843749999999996 -12.867187999999999 1.4843749999999996 -11.28125 C 1.4843749999999996 -9.699219 1.7812499999999996 -8.183594 2.3749999999999996 -6.796875 C 2.9687499999999996 -5.378906 3.7929689999999994 -4.15625 4.8515619999999995 -3.101562 C 5.90625 -2.046875 7.125 -1.21875 8.511719 -0.625 C 9.898437999999999 -0.03125 11.414062 0.265625 13 0.265625 C 14.582031 0.265625 16.066406 -0.03125 17.484375 -0.625 C 18.871094 -1.21875 20.089844 -2.046875 21.148438 -3.101562 C 22.203125 -4.15625 23.027344 -5.378906 23.621094 -6.796875 C 24.214844 -8.183594 24.546875 -9.699219 24.546875 -11.28125 z M 24.546875 -11.28125" stroke-linecap="round" />
</g>
<g transform="matrix(1 0 0 1 298.51 323.91)" id="X52zZiwYouuNujiq0FHpt"  >
<path style="stroke: none; stroke-width: 1; stroke-dasharray: none; stroke-linecap: butt; stroke-dashoffset: 0; stroke-linejoin: miter; stroke-miterlimit: 4; fill: rgb(62,43,5); fill-rule: nonzero; opacity: 1;" vector-effect="non-scaling-stroke"  transform=" translate(-9.14, 11.22)" d="M 15.800781 -20.289062 L 15.800781 -22.433594 L 2.4726560000000006 -22.433594 L 2.4726560000000006 0 L 4.785156000000001 0 L 4.785156000000001 -10.128906 L 15.472656 -10.128906 L 15.472656 -12.304688 L 4.785156000000001 -12.304688 L 4.785156000000001 -20.289062 z M 15.800781 -20.289062" stroke-linecap="round" />
</g>
<g transform="matrix(1 0 0 1 314.97 323.91)" id="uemBPYMxUgPgLSjPvpxVZ"  >
<path style="stroke: none; stroke-width: 1; stroke-dasharray: none; stroke-linecap: butt; stroke-dashoffset: 0; stroke-linejoin: miter; stroke-miterlimit: 4; fill: rgb(62,43,5); fill-rule: nonzero; opacity: 1;" vector-effect="non-scaling-stroke"  transform=" translate(-9.14, 11.22)" d="M 15.800781 0 L 15.800781 -2.144531 L 4.785156000000001 -2.144531 L 4.785156000000001 -10.128906 L 15.472656 -10.128906 L 15.472656 -12.304688 L 4.785156000000001 -12.304688 L 4.785156000000001 -20.289062 L 15.800781 -20.289062 L 15.800781 -22.433594 L 2.4726560000000006 -22.433594 L 2.4726560000000006 0 z M 15.800781 0" stroke-linecap="round" />
</g>
<g transform="matrix(1 0 0 1 333.92 323.91)" id="9xm1JgJ7SbRBTuSm5Y52D"  >
<path style="stroke: none; stroke-width: 1; stroke-dasharray: none; stroke-linecap: butt; stroke-dashoffset: 0; stroke-linejoin: miter; stroke-miterlimit: 4; fill: rgb(62,43,5); fill-rule: nonzero; opacity: 1;" vector-effect="non-scaling-stroke"  transform=" translate(-9.81, 11.22)" d="M 4.785156 -11.085938 L 4.785156 -20.222656 L 9.996094 -20.222656 C 11.347655999999999 -20.222656 12.4375 -19.792969 13.261719 -18.9375 C 14.054687999999999 -18.078125 14.484375 -17.023438 14.484375 -15.703125 C 14.484375 -14.382812000000001 14.054688 -13.296875 13.195312 -12.40625 C 12.339844 -11.515625 11.28125 -11.085938 9.996094 -11.085938 z M 16.792969 -15.671875 C 16.792969 -17.585938 16.066406 -19.234375 14.679687999999999 -20.519531 C 13.328124999999998 -21.773438000000002 11.644530999999999 -22.433594 9.667969 -22.433594 L 2.4726559999999997 -22.433594 L 2.4726559999999997 0 L 4.785156 0 L 4.785156 -8.875 L 7.457031 -8.875 L 14.054687999999999 0 L 17.15625 0 L 10.226562000000001 -8.875 C 11.976562000000001 -8.972656 13.460938000000002 -9.601562 14.679688000000002 -10.753906 C 16.066406 -12.042969000000001 16.792969000000003 -13.691406 16.792969000000003 -15.671875 z M 16.792969 -15.671875" stroke-linecap="round" />
</g>
<g transform="matrix(1 0 0 1 181.87 238.14)" id="noewCsKnm0LiAJon0i-YP"  >
<path style="stroke: none; stroke-width: 1; stroke-dasharray: none; stroke-linecap: butt; stroke-dashoffset: 0; stroke-linejoin: miter; stroke-miterlimit: 4; fill: rgb(62,43,5); fill-rule: nonzero; opacity: 1;" vector-effect="non-scaling-stroke"  transform=" translate(-30.38, 29.62)" d="M 3.4375 -0.617188 L 3.4375 0 L 35.667969 0 C 47.144531 0 57.316406 -4.535156 57.316406 -16.011719 C 57.316406 -26.597656 48.65625 -31.0625 38.96875 -31.613281 C 47.28125 -32.988281 54.773438 -36.21875 54.773438 -45.359375 C 54.773438 -56.421875 44.328125 -59.242188 33.195312 -59.242188 L 3.4375 -59.242188 L 3.4375 -58.621094 L 4.261719 -58.621094 C 6.324219 -58.554688 11.546875 -57.660156 11.546875 -51.335938 L 11.546875 -7.902343999999999 C 11.546875 -1.6484379999999996 6.460938 -0.7578119999999995 4.328125 -0.6171879999999996 z M 33.195312 -31.75 L 25.773438000000002 -31.75 L 25.773438000000002 -58.621094 L 33.195312 -58.621094 C 38.140625 -58.621094 40.753906 -53.675781 40.753906 -45.359375 C 40.753906 -36.972656 38.140625 -31.75 33.195312 -31.75 z M 35.667969 -0.6171879999999987 L 32.644531 -0.6171879999999987 C 30.859375 -0.6874999999999988 25.773438 -1.4414059999999989 25.773438 -7.765624999999999 L 25.773438 -31.0625 L 35.667969 -31.0625 C 40.617188 -31.0625 43.296875 -24.398438 43.296875 -16.011719 C 43.296875 -7.628905999999999 40.617188 -0.6171879999999987 35.667969 -0.6171879999999987 z M 35.667969 -0.6171879999999987" stroke-linecap="round" />
</g>
<g transform="matrix(1 0 0 1 246.25 238.14)" id="Brel9_6r2wZlXNTfk1puj"  >
<path style="stroke: none; stroke-width: 1; stroke-dasharray: none; stroke-linecap: butt; stroke-dashoffset: 0; stroke-linejoin: miter; stroke-miterlimit: 4; fill: rgb(62,43,5); fill-rule: nonzero; opacity: 1;" vector-effect="non-scaling-stroke"  transform=" translate(-30.58, 29.62)" d="M 3.4375 -0.617188 L 3.4375 0 L 53.191406 0 L 57.730469 -15.53125 L 57.109375 -15.53125 C 53.8125 -5.566406000000001 45.703125 -0.6171880000000005 33.882812 -0.6171880000000005 C 28.863281 -0.6171880000000005 25.773438 -3.3671880000000005 25.773438 -7.902344 L 25.773438 -30.789061999999998 L 36.082031 -30.789061999999998 C 42.402344 -30.582030999999997 43.023438 -24.878905999999997 43.023438 -23.296874999999996 L 43.023438 -22.953124999999996 L 43.640625 -22.953124999999996 L 43.640625 -39.171875 L 43.023438 -39.171875 L 43.023438 -38.828125 C 43.023438 -37.25 42.402344 -31.542969 36.082031 -31.40625 L 25.773438 -31.40625 L 25.839844 -58.621094 L 30.789062 -58.621094 C 47.421875 -58.621094 50.992188 -48.449219 51.679688 -44.945312 L 51.886719 -43.710938 L 52.4375 -43.984375 L 50.101562 -59.242188 L 3.4375 -59.242188 L 3.4375 -58.621094 C 8.453125 -58.621094 11.546875 -55.875 11.546875 -51.335938 L 11.546875 -7.902343999999999 C 11.546875 -3.3671879999999996 8.453125 -0.6171879999999996 3.4375 -0.6171879999999996 z M 3.4375 -0.617188" stroke-linecap="round" />
</g>
<g transform="matrix(1 0 0 1 314.38 238.14)" id="WfVJpb3Fzf1SmJKUi4J6o"  >
<path style="stroke: none; stroke-width: 1; stroke-dasharray: none; stroke-linecap: butt; stroke-dashoffset: 0; stroke-linejoin: miter; stroke-miterlimit: 4; fill: rgb(62,43,5); fill-rule: nonzero; opacity: 1;" vector-effect="non-scaling-stroke"  transform=" translate(-34.12, 29.62)" d="M 12.921875 -49.277344 L 56.285156 0 L 56.972656 0 L 56.972656 -51.613281 C 57.179688 -58.964844 64.808594 -58.554688 64.808594 -58.554688 L 64.808594 -59.242188 L 48.519531 -59.242188 L 48.519531 -58.621094 C 48.519531 -58.554688 56.148438 -58.964844 56.355469 -51.613281 L 56.355469 -21.167969 L 22.746094 -59.242188 L 3.4375 -59.242188 L 3.4375 -58.554688 C 8.316406 -58.554688 11.066406 -56.078125 11.203125 -50.238281 L 11.203125 -7.558593999999999 C 11.066406 -1.2382809999999997 5.292969 -0.6874999999999991 3.78125 -0.6171879999999996 L 3.4375 -0.6171879999999996 L 3.4375 3.3306690738754696e-16 L 19.65625 3.3306690738754696e-16 L 19.65625 -0.6171879999999996 L 19.3125 -0.6171879999999996 C 17.730469 -0.6874999999999997 12.027344 -1.2382809999999997 11.820312000000001 -7.558593999999999 L 11.820312000000001 -50.445312 z M 12.921875 -49.277344" stroke-linecap="round" />
</g>
<g transform="matrix(3.75 0 0 3.75 249.9 286.19)" id="SRatTYS0TbmnmbIeyTOkG"  >
<path style="stroke: rgb(62,43,5); stroke-width: 1; stroke-dasharray: none; stroke-linecap: round; stroke-dashoffset: 0; stroke-linejoin: miter; stroke-miterlimit: 4; fill: none; fill-rule: nonzero; opacity: 1;" vector-effect="non-scaling-stroke"  transform=" translate(-31.43, 0)" d="M 0.500206 -0.0004309 L 62.355616999999995 -0.0004309" stroke-linecap="round" />
</g>
</svg>